SplineFontDB: 1.0
FontName: UbuntuTitleBold
FullName: UbuntuTitleBold
FamilyName: UbuntuTitleBold
Weight: Bold
Copyright: Copyright (c) 2005 Canonical Ltd.\nmade by Andrew Fitzsimon ( andrew@fitzsimon.com.au ) \nreleased under the LGPL ( http://www.gnu.org/copyleft/lesser.html )\nbold (65) version - Paulo Silva - 20070523
Version: 002.000
ItalicAngle: 0
UnderlinePosition: -100
UnderlineWidth: 50
Ascent: 800
Descent: 200
Order2: 1
XUID: [1021 682 1097764676 9261374]
FSType: 0
OS2Version: 1
OS2_WeightWidthSlopeOnly: 0
OS2_UseTypoMetrics: 1
CreationTime: 1124425253
ModificationTime: 1181241611
PfmFamily: 17
TTFWeight: 400
TTFWidth: 5
LineGap: 88
VLineGap: 0
Panose: 2 0 5 3 0 0 0 0 0 0
OS2TypoAscent: 0
OS2TypoAOffset: 1
OS2TypoDescent: 0
OS2TypoDOffset: 1
OS2TypoLinegap: 0
OS2WinAscent: 0
OS2WinAOffset: 1
OS2WinDescent: 0
OS2WinDOffset: 1
HheadAscent: 0
HheadAOffset: 1
HheadDescent: 0
HheadDOffset: 1
OS2SubXSize: 648
OS2SubYSize: 696
OS2SubXOff: 0
OS2SubYOff: 138
OS2SupXSize: 648
OS2SupYSize: 696
OS2SupXOff: 0
OS2SupYOff: 476
OS2StrikeYSize: 48
OS2StrikeYPos: 256
OS2Vendor: 'PfEd'
ScriptLang: 1
 1 latn 1 dflt 
TableOrder: GPOS 1
	'kern'
TtfTable: cvt  4
!$MDh
EndTtf
TtfTable: maxp 32
!!*'"!+>k6!!<3$!!!!#!!!!"!!*'"!'gMaz
EndTtf
LangName: 1033 
LangName: 2057 "" "" "Ubuntu-Title" 
LangName: 3081 "" "" "Ubuntu-Title" 
Encoding: UnicodeFull
UnicodeInterp: none
NameList: Adobe Glyph List
DisplaySize: -48
AntiAlias: 1
FitToEm: 1
WinInfo: 160 10 10
BeginChars: 1114114 178
StartChar: exclam
Encoding: 33 33 4
Width: 427
GlyphClass: 2
Flags: W
VStem: 139.61 149.031<33.7118 114.631 227.893 624.12>
Fore
288.642 270 m 2,0,1
 288.642 237.61 288.642 237.61 268.268 214.633 c 128,-1,2
 247.893 191.656 247.893 191.656 215.955 191.656 c 0,3,4
 181.728 191.656 181.728 191.656 160.669 211.908 c 128,-1,5
 139.61 232.16 139.61 232.16 139.61 267.137 c 2,6,-1
 139.61 593.572 l 2,7,8
 139.61 624.12 139.61 624.12 160.581 645.396 c 128,-1,9
 181.552 666.671 181.552 666.671 214.844 666.671 c 128,-1,10
 248.331 666.671 248.331 666.671 268.486 646.586 c 128,-1,11
 288.642 626.502 288.642 626.502 288.642 595.525 c 2,12,-1
 288.642 270 l 2,0,1
289.535 74.0771 m 128,-1,14
 289.535 43.0269 289.535 43.0269 267.56 21.052 c 128,-1,15
 245.585 -0.922852 245.585 -0.922852 214.535 -0.922852 c 128,-1,16
 183.485 -0.922852 183.485 -0.922852 161.51 21.052 c 128,-1,17
 139.535 43.0269 139.535 43.0269 139.535 74.0771 c 128,-1,18
 139.535 105.272 139.535 105.272 161.51 127.248 c 128,-1,19
 183.485 149.223 183.485 149.223 214.535 149.223 c 128,-1,20
 245.585 149.223 245.585 149.223 267.56 127.248 c 128,-1,13
 289.535 105.272 289.535 105.272 289.535 74.0771 c 128,-1,14
EndSplineSet
EndChar
StartChar: quotedbl
Encoding: 34 34 5
Width: 505
GlyphClass: 2
Flags: W
HStem: 407.351 213.513<79.7761 165.688 285.578 371.489>
VStem: 47.8232 149.03<443.587 578.312> 253.624 149.031<443.588 578.312>
Fore
402.655 485.694 m 2,0,1
 402.655 453.305 402.655 453.305 382.281 430.327 c 128,-1,2
 361.907 407.351 361.907 407.351 329.968 407.351 c 0,3,4
 295.741 407.351 295.741 407.351 274.683 427.603 c 128,-1,5
 253.624 447.854 253.624 447.854 253.624 482.83 c 2,6,-1
 253.624 547.765 l 2,7,8
 253.624 578.312 253.624 578.312 274.595 599.588 c 128,-1,9
 295.565 620.863 295.565 620.863 328.856 620.863 c 128,-1,10
 362.344 620.863 362.344 620.863 382.5 600.779 c 128,-1,11
 402.655 580.695 402.655 580.695 402.655 549.719 c 2,12,-1
 402.655 485.694 l 2,0,1
196.854 485.694 m 2,13,14
 196.854 453.304 196.854 453.304 176.48 430.327 c 128,-1,15
 156.106 407.351 156.106 407.351 124.167 407.351 c 0,16,17
 89.9404 407.351 89.9404 407.351 68.8818 427.603 c 128,-1,18
 47.8232 447.854 47.8232 447.854 47.8232 482.83 c 2,19,-1
 47.8232 547.765 l 2,20,21
 47.8232 578.312 47.8232 578.312 68.7939 599.588 c 128,-1,22
 89.7637 620.863 89.7637 620.863 123.056 620.863 c 128,-1,23
 156.543 620.863 156.543 620.863 176.698 600.779 c 128,-1,24
 196.854 580.695 196.854 580.695 196.854 549.719 c 2,25,-1
 196.854 485.694 l 2,13,14
EndSplineSet
EndChar
StartChar: numbersign
Encoding: 35 35 6
Width: 835
GlyphClass: 2
Flags: W
HStem: 127.531 149.031<60.5479 166.875 315.906 458.25 607.281 708.202> 419.344 149.031<60.5439 166.875 315.906 458.25 607.281 708.202>
VStem: 166.875 149.031<44.6104 127.531 276.562 419.344 568.375 675.433> 458.25 149.031<44.6104 127.531 276.562 419.344 568.375 666.269>
Fore
242.094 708.812 m 128,-1,1
 275.584 708.812 275.584 708.812 295.745 688.736 c 128,-1,2
 315.906 668.66 315.906 668.66 315.906 637.688 c 2,3,-1
 315.906 568.375 l 1,4,-1
 458.25 568.375 l 1,5,-1
 458.25 635.719 l 2,6,7
 458.25 666.269 458.25 666.269 479.214 687.54 c 128,-1,8
 500.178 708.812 500.178 708.812 533.469 708.812 c 128,-1,9
 566.959 708.812 566.959 708.812 587.12 688.736 c 128,-1,10
 607.281 668.66 607.281 668.66 607.281 637.688 c 2,11,-1
 607.281 568.375 l 1,12,-1
 675.812 568.375 l 2,13,14
 708.202 568.375 708.202 568.375 731.18 548.001 c 128,-1,15
 754.156 527.627 754.156 527.627 754.156 495.688 c 0,16,17
 754.156 461.463 754.156 461.463 733.896 440.403 c 128,-1,18
 713.635 419.344 713.635 419.344 678.656 419.344 c 2,19,-1
 607.281 419.344 l 1,20,-1
 607.281 276.562 l 1,21,-1
 675.812 276.562 l 2,22,23
 708.202 276.562 708.202 276.562 731.18 256.188 c 128,-1,24
 754.156 235.814 754.156 235.814 754.156 203.875 c 0,25,26
 754.156 169.65 754.156 169.65 733.896 148.591 c 128,-1,27
 713.635 127.531 713.635 127.531 678.656 127.531 c 2,28,-1
 607.281 127.531 l 1,29,-1
 607.281 77 l 2,30,31
 607.281 44.6104 607.281 44.6104 586.907 21.6328 c 128,-1,32
 566.533 -1.34375 566.533 -1.34375 534.594 -1.34375 c 0,33,34
 500.369 -1.34375 500.369 -1.34375 479.31 18.917 c 128,-1,35
 458.25 39.1768 458.25 39.1768 458.25 74.1562 c 2,36,-1
 458.25 127.531 l 1,37,-1
 315.906 127.531 l 1,38,-1
 315.906 77 l 2,39,40
 315.906 44.6104 315.906 44.6104 295.532 21.6328 c 128,-1,41
 275.158 -1.34375 275.158 -1.34375 243.219 -1.34375 c 0,42,43
 208.994 -1.34375 208.994 -1.34375 187.935 18.917 c 128,-1,44
 166.875 39.1768 166.875 39.1768 166.875 74.1562 c 2,45,-1
 166.875 127.531 l 1,46,-1
 91.0938 127.531 l 2,47,48
 60.5479 127.531 60.5479 127.531 39.2734 148.509 c 128,-1,49
 18 169.487 18 169.487 18 202.781 c 128,-1,50
 18 236.269 18 236.269 38.0742 256.416 c 128,-1,51
 58.1494 276.562 58.1494 276.562 89.125 276.562 c 2,52,-1
 166.875 276.562 l 1,53,-1
 166.875 419.344 l 1,54,-1
 91.0938 419.344 l 2,55,56
 60.5439 419.344 60.5439 419.344 39.2725 440.308 c 128,-1,57
 18 461.271 18 461.271 18 494.562 c 128,-1,58
 18 528.053 18 528.053 38.0762 548.214 c 128,-1,59
 58.1523 568.375 58.1523 568.375 89.125 568.375 c 2,60,-1
 166.875 568.375 l 1,61,-1
 166.875 635.719 l 2,62,63
 166.875 666.269 166.875 666.269 187.839 687.54 c 128,-1,0
 208.803 708.812 208.803 708.812 242.094 708.812 c 128,-1,1
315.906 419.344 m 1,64,-1
 315.906 276.562 l 1,65,-1
 458.25 276.562 l 1,66,-1
 458.25 419.344 l 1,67,-1
 315.906 419.344 l 1,64,-1
EndSplineSet
EndChar
StartChar: dollar
Encoding: 36 36 7
Width: 685
GlyphClass: 2
Flags: W
HStem: 75.75 150<112.669 253.5 403.5 463.3> 463.75 152<209.549 253.5 403.5 532.763>
VStem: 253.5 150<227.75 273.75 423.75 463.75 615.75 663.663>
Fore
328.5 696.25 m 0,0,1
 360.193 696.25 360.193 696.25 381.847 676.989 c 128,-1,2
 403.5 657.729 403.5 657.729 403.5 627.25 c 2,3,-1
 403.5 615.75 l 1,4,-1
 498.938 614.656 l 2,5,6
 532.763 614.656 532.763 614.656 553.818 594.312 c 128,-1,7
 574.875 573.967 574.875 573.967 574.875 541.062 c 0,8,9
 574.875 505.723 574.875 505.723 553.073 485.189 c 128,-1,10
 531.271 464.656 531.271 464.656 498.938 464.656 c 0,11,12
 488.274 464.557 488.274 464.557 467.129 464.153 c 128,-1,13
 445.982 463.749 445.982 463.749 435.317 463.646 c 128,-1,14
 424.652 463.543 424.652 463.543 403.5 463.75 c 1,15,-1
 403.5 423.75 l 1,16,-1
 443.5 423.75 l 2,17,18
 520.084 423.75 520.084 423.75 559.792 373.473 c 128,-1,19
 599.5 323.195 599.5 323.195 599.5 247.75 c 0,20,21
 599.5 177.267 599.5 177.267 554.812 126.509 c 128,-1,22
 510.124 75.75 510.124 75.75 443.5 75.75 c 2,23,-1
 403.5 75.75 l 1,24,-1
 403.469 61.1562 l 2,25,26
 402.76 31.4883 402.76 31.4883 381.369 13.7285 c 128,-1,27
 359.979 -4.03125 359.979 -4.03125 328.5 -4.03125 c 0,28,29
 300.168 -4.03125 300.168 -4.03125 279.026 14.6318 c 128,-1,30
 257.886 33.2949 257.886 33.2949 254.188 60.9688 c 1,31,32
 252.683 66.0674 252.683 66.0674 253.355 69.3115 c 128,-1,33
 254.027 72.5557 254.027 72.5557 253.5 77.75 c 1,34,-1
 143.719 77.0938 l 2,35,36
 112.669 77.0938 112.669 77.0938 90.6934 99.0684 c 128,-1,37
 68.7188 121.044 68.7188 121.044 68.7188 152.094 c 128,-1,38
 68.7188 183.144 68.7188 183.144 90.6934 205.119 c 128,-1,39
 112.669 227.094 112.669 227.094 143.719 227.094 c 0,40,41
 248.972 227.812 248.972 227.812 253.5 227.75 c 1,42,-1
 253.5 273.75 l 1,43,-1
 211.5 273.75 l 2,44,45
 140.842 273.75 140.842 273.75 99.1709 322.038 c 128,-1,46
 57.5 370.326 57.5 370.326 57.5 443.75 c 0,47,48
 57.5 517.95 57.5 517.95 100.375 566.851 c 128,-1,49
 143.25 615.75 143.25 615.75 211.5 615.75 c 2,50,-1
 253.5 615.75 l 1,51,-1
 253.5 627.25 l 2,52,53
 253.5 655.26 253.5 655.26 272.371 675.755 c 128,-1,54
 291.241 696.25 291.241 696.25 328.5 696.25 c 0,0,1
253.5 463.75 m 1,55,56
 226.571 463.75 226.571 463.75 217.036 459.905 c 128,-1,57
 207.5 456.062 207.5 456.062 207.5 441.75 c 0,58,59
 207.5 429.567 207.5 429.567 216.932 426.658 c 128,-1,60
 226.362 423.75 226.362 423.75 253.5 423.75 c 1,61,-1
 253.5 463.75 l 1,55,56
403.5 273.75 m 1,62,-1
 403.5 225.75 l 1,63,64
 449.5 225.75 449.5 225.75 449.5 249.75 c 0,65,66
 449.5 264.633 449.5 264.633 437.262 269.191 c 128,-1,67
 425.022 273.75 425.022 273.75 403.5 273.75 c 1,62,-1
EndSplineSet
EndChar
StartChar: quotesingle
Encoding: 39 39 8
Width: 427
GlyphClass: 2
Flags: W
VStem: 135.47 149.03<451.587 586.312>
Fore
284.5 493.694 m 2,0,1
 284.5 461.304 284.5 461.304 264.126 438.327 c 128,-1,2
 243.753 415.351 243.753 415.351 211.813 415.351 c 0,3,4
 177.587 415.351 177.587 415.351 156.528 435.602 c 128,-1,5
 135.47 455.854 135.47 455.854 135.47 490.83 c 2,6,-1
 135.47 555.765 l 2,7,8
 135.47 586.312 135.47 586.312 156.44 607.588 c 128,-1,9
 177.411 628.863 177.411 628.863 210.702 628.863 c 128,-1,10
 244.189 628.863 244.189 628.863 264.345 608.779 c 128,-1,11
 284.5 588.695 284.5 588.695 284.5 557.719 c 2,12,-1
 284.5 493.694 l 2,0,1
EndSplineSet
EndChar
StartChar: parenleft
Encoding: 40 40 9
Width: 423
GlyphClass: 2
Flags: W
VStem: 46.0312 163.969<290.477 524.813>
Fore
211.469 700.5 m 0,0,1
 242.519 700.5 242.519 700.5 264.493 678.525 c 128,-1,2
 286.469 656.55 286.469 656.55 286.469 625.5 c 0,3,4
 286.469 597.458 286.469 597.458 268.031 576.281 c 1,5,6
 210.588 484.414 210.588 484.414 210 349.75 c 0,7,8
 214.887 275.48 214.887 275.48 227.637 220.633 c 128,-1,9
 240.386 165.785 240.386 165.785 272.469 118.656 c 0,10,11
 287.156 98.7207 287.156 98.7207 287.156 74.0625 c 0,12,13
 287.156 43.0127 287.156 43.0127 265.181 21.0371 c 128,-1,14
 243.206 -0.9375 243.206 -0.9375 212.156 -0.9375 c 0,15,16
 172.924 -0.9375 172.924 -0.9375 147.938 35.3125 c 0,17,18
 98.9092 96.3262 98.9092 96.3262 72.4707 184.265 c 128,-1,19
 46.0312 272.203 46.0312 272.203 46.0312 349.75 c 0,20,21
 46.0312 546.881 46.0312 546.881 155.219 675.062 c 0,22,23
 177.656 700.5 177.656 700.5 211.469 700.5 c 0,0,1
EndSplineSet
EndChar
StartChar: parenright
Encoding: 41 41 10
Width: 375
GlyphClass: 2
Flags: W
VStem: 152.031 163.969<290.477 524.813>
Fore
150.562 700.5 m 0,0,1
 119.513 700.5 119.513 700.5 97.5381 678.525 c 128,-1,2
 75.5625 656.55 75.5625 656.55 75.5625 625.5 c 0,3,4
 75.5625 597.458 75.5625 597.458 94 576.281 c 1,5,6
 151.443 484.414 151.443 484.414 152.031 349.75 c 0,7,8
 147.145 275.48 147.145 275.48 134.395 220.633 c 128,-1,9
 121.646 165.785 121.646 165.785 89.5625 118.656 c 0,10,11
 74.875 98.7207 74.875 98.7207 74.875 74.0625 c 0,12,13
 74.875 43.0127 74.875 43.0127 96.8506 21.0371 c 128,-1,14
 118.825 -0.9375 118.825 -0.9375 149.875 -0.9375 c 0,15,16
 189.107 -0.9375 189.107 -0.9375 214.094 35.3125 c 0,17,18
 263.122 96.3262 263.122 96.3262 289.561 184.265 c 128,-1,19
 316 272.203 316 272.203 316 349.75 c 0,20,21
 316 546.881 316 546.881 206.812 675.062 c 0,22,23
 184.375 700.5 184.375 700.5 150.562 700.5 c 0,0,1
EndSplineSet
EndChar
StartChar: asterisk
Encoding: 42 42 11
Width: 573
GlyphClass: 2
Flags: W
HStem: 515.531 149.031<84.5166 136.719 394.938 459.62>
Fore
193 798.375 m 0,0,1
 231.582 798.441 231.582 798.441 252.531 762.156 c 2,2,-1
 265.812 739.156 l 1,3,-1
 278.312 760.781 l 2,4,5
 293.588 787.237 293.588 787.237 321.832 795.025 c 128,-1,6
 350.076 802.812 350.076 802.812 380 786.469 c 0,7,8
 409.002 769.725 409.002 769.725 416.527 741.851 c 128,-1,9
 424.052 713.977 424.052 713.977 408.344 687.969 c 2,10,-1
 394.844 664.562 l 1,11,-1
 419.906 664.562 l 2,12,13
 450.455 664.562 450.455 664.562 471.728 643.599 c 128,-1,14
 493 622.635 493 622.635 493 589.344 c 128,-1,15
 493 555.856 493 555.856 472.91 535.693 c 128,-1,16
 452.819 515.531 452.819 515.531 421.844 515.531 c 2,17,-1
 394.938 515.531 l 1,18,-1
 405 498.094 l 2,19,20
 421.438 471.23 421.438 471.23 415.158 440.554 c 128,-1,21
 408.879 409.876 408.879 409.876 381.219 393.906 c 0,22,23
 352.301 376.612 352.301 376.612 323.566 383.708 c 128,-1,24
 294.832 390.804 294.832 390.804 277.344 421.094 c 2,25,-1
 265.812 441.062 l 1,26,-1
 255.875 423.875 l 2,27,28
 239.681 395.825 239.681 395.825 211.121 386.307 c 128,-1,29
 182.561 376.788 182.561 376.788 153.75 392.375 c 0,30,31
 124.108 409.489 124.108 409.489 116.102 437.194 c 128,-1,32
 108.094 464.9 108.094 464.9 125.375 495.906 c 2,33,-1
 136.719 515.531 l 1,34,-1
 116.906 515.531 l 2,35,36
 84.5166 515.531 84.5166 515.531 61.5391 535.905 c 128,-1,37
 38.5625 556.279 38.5625 556.279 38.5625 588.219 c 0,38,39
 38.5625 622.443 38.5625 622.443 58.8232 643.503 c 128,-1,40
 79.084 664.562 79.084 664.562 114.062 664.562 c 2,41,-1
 136.781 664.562 l 1,42,-1
 124.438 685.969 l 2,43,44
 108.878 711.327 108.878 711.327 116.539 740.778 c 128,-1,45
 124.2 770.229 124.2 770.229 153.031 786.875 c 0,46,47
 172.891 798.34 172.891 798.34 193 798.375 c 0,0,1
EndSplineSet
EndChar
StartChar: plus
Encoding: 43 43 12
Width: 635
GlyphClass: 2
Flags: W
HStem: 315.375 149.031<114.829 245.969 395 529.518>
VStem: 245.969 149.031<184.235 315.375 464.406 608.12>
Fore
321.188 641.5 m 128,-1,1
 354.676 641.5 354.676 641.5 374.838 621.41 c 128,-1,2
 395 601.319 395 601.319 395 570.344 c 2,3,-1
 395 464.406 l 1,4,-1
 498.969 464.406 l 2,5,6
 529.518 464.406 529.518 464.406 550.806 443.427 c 128,-1,7
 572.094 422.447 572.094 422.447 572.094 389.156 c 128,-1,8
 572.094 355.672 572.094 355.672 552.006 335.523 c 128,-1,9
 531.917 315.375 531.917 315.375 500.938 315.375 c 2,10,-1
 395 315.375 l 1,11,-1
 395 216.625 l 2,12,13
 395 184.235 395 184.235 374.626 161.258 c 128,-1,14
 354.252 138.281 354.252 138.281 322.312 138.281 c 0,15,16
 288.085 138.281 288.085 138.281 267.027 158.527 c 128,-1,17
 245.969 178.774 245.969 178.774 245.969 213.75 c 2,18,-1
 245.969 315.375 l 1,19,-1
 147.219 315.375 l 2,20,21
 114.829 315.375 114.829 315.375 91.8516 335.749 c 128,-1,22
 68.875 356.123 68.875 356.123 68.875 388.062 c 0,23,24
 68.875 422.29 68.875 422.29 89.1211 443.349 c 128,-1,25
 109.368 464.406 109.368 464.406 144.344 464.406 c 2,26,-1
 245.969 464.406 l 1,27,-1
 245.969 568.406 l 2,28,29
 245.969 598.955 245.969 598.955 266.933 620.228 c 128,-1,0
 287.896 641.5 287.896 641.5 321.188 641.5 c 128,-1,1
EndSplineSet
EndChar
StartChar: comma
Encoding: 44 44 13
Width: 273
GlyphClass: 2
Flags: W
VStem: 43.4688 149.031<36.0553 170.781>
Fore
192.5 78.1631 m 2,0,1
 192.5 45.7725 192.5 45.7725 172.126 22.7959 c 128,-1,2
 151.752 -0.180664 151.752 -0.180664 119.812 -0.180664 c 0,3,4
 85.5859 -0.180664 85.5859 -0.180664 64.5273 20.0703 c 128,-1,5
 43.4688 40.3223 43.4688 40.3223 43.4688 75.2988 c 2,6,-1
 43.4688 140.233 l 2,7,8
 43.4688 170.781 43.4688 170.781 64.4395 192.057 c 128,-1,9
 85.4102 213.332 85.4102 213.332 118.702 213.332 c 128,-1,10
 152.189 213.332 152.189 213.332 172.345 193.248 c 128,-1,11
 192.5 173.163 192.5 173.163 192.5 142.187 c 2,12,-1
 192.5 78.1631 l 2,0,1
EndSplineSet
EndChar
StartChar: hyphen
Encoding: 45 45 14
Width: 399
GlyphClass: 2
Flags: W
HStem: 164.605 149.031<65.4784 332.449>
Fore
107.585 164.605 m 2,0,1
 75.1953 164.605 75.1953 164.605 52.2188 184.979 c 128,-1,2
 29.2412 205.354 29.2412 205.354 29.2412 237.293 c 0,3,4
 29.2412 271.52 29.2412 271.52 49.4922 292.578 c 128,-1,5
 69.7441 313.637 69.7441 313.637 104.721 313.637 c 2,6,-1
 301.9 313.637 l 2,7,8
 332.449 313.637 332.449 313.637 353.725 292.666 c 128,-1,9
 375 271.695 375 271.695 375 238.403 c 128,-1,10
 375 204.917 375 204.917 354.915 184.761 c 128,-1,11
 334.83 164.605 334.83 164.605 303.854 164.605 c 2,12,-1
 107.585 164.605 l 2,0,1
EndSplineSet
EndChar
StartChar: period
Encoding: 46 46 15
Width: 239
GlyphClass: 2
Flags: W
Fore
183 74.0771 m 128,-1,1
 183 43.0273 183 43.0273 161.025 21.0518 c 128,-1,2
 139.051 -0.922852 139.051 -0.922852 108 -0.922852 c 128,-1,3
 76.9492 -0.922852 76.9492 -0.922852 54.9746 21.0518 c 128,-1,4
 33 43.0273 33 43.0273 33 74.0771 c 128,-1,5
 33 105.272 33 105.272 54.9746 127.247 c 128,-1,6
 76.9502 149.223 76.9502 149.223 108 149.223 c 128,-1,7
 139.05 149.223 139.05 149.223 161.025 127.247 c 128,-1,0
 183 105.272 183 105.272 183 74.0771 c 128,-1,1
EndSplineSet
EndChar
StartChar: slash
Encoding: 47 47 16
Width: 713
GlyphClass: 2
Flags: W
Fore
544.062 699.156 m 4,0,1
 575.113 699.156 575.113 699.156 597.088 677.182 c 132,-1,2
 619.062 655.207 619.062 655.207 619.062 624.156 c 4,3,4
 619.062 596.527 619.062 596.527 601.094 575.5 c 6,5,-1
 200.312 41.2188 l 6,6,7
 178.712 3.0625 178.712 3.0625 135 3.0625 c 4,8,9
 103.95 3.0625 103.95 3.0625 81.9746 25.0371 c 132,-1,10
 60 47.0127 60 47.0127 60 78.0625 c 4,11,12
 60 101.471 60 101.471 73.3438 120.719 c 6,13,-1
 483.688 668.625 l 6,14,15
 506.215 699.156 506.215 699.156 544.062 699.156 c 4,0,1
EndSplineSet
EndChar
StartChar: zero
Encoding: 48 48 17
Width: 671
GlyphClass: 2
Flags: W
HStem: 0.34375 149.605<243.839 516.306> 546.492 148.602<247.274 435.699>
VStem: 51 149.969<207.187 482.227> 475 149.969<123.494 481.707>
Fore
51 347.75 m 0,0,1
 51 695.094 51 695.094 338.188 695.094 c 0,2,3
 624.969 695.094 624.969 695.094 624.969 345.75 c 0,4,5
 624.969 174.784 624.969 174.784 550.743 87.5645 c 128,-1,6
 476.518 0.34375 476.518 0.34375 337.125 0.34375 c 0,7,8
 204.994 0.34375 204.994 0.34375 127.997 88.1885 c 128,-1,9
 51 176.032 51 176.032 51 347.75 c 0,0,1
338.25 546.492 m 0,10,11
 268.269 546.492 268.269 546.492 234.619 498.612 c 128,-1,12
 200.969 450.732 200.969 450.732 200.969 345.75 c 0,13,14
 199.146 239.163 199.146 239.163 232.278 194.557 c 128,-1,15
 265.41 149.949 265.41 149.949 337.312 149.949 c 0,16,17
 475 149.949 475 149.949 475 345.75 c 0,18,19
 475 450.332 475 450.332 444.105 498.412 c 128,-1,20
 413.211 546.492 413.211 546.492 338.25 546.492 c 0,10,11
EndSplineSet
EndChar
StartChar: one
Encoding: 49 49 18
Width: 285
GlyphClass: 2
Flags: W
VStem: 91.3438 150.438<35.5637 547.188>
Fore
77.3125 695.844 m 2,0,-1
 167 695.844 l 2,1,2
 198.05 695.844 198.05 695.844 220.025 673.869 c 128,-1,3
 242 651.894 242 651.894 242 620.844 c 0,4,5
 242.452 203.901 242.452 203.901 241.781 75.0625 c 0,6,7
 241.78 44.0117 241.78 44.0117 219.806 22.0371 c 128,-1,8
 197.831 0.0625 197.831 0.0625 166.781 0.0625 c 0,9,10
 136.23 0.0625 136.23 0.0625 113.787 22.2949 c 128,-1,11
 91.3438 44.5273 91.3438 44.5273 91.3438 74.4062 c 2,12,-1
 91.3438 547.188 l 1,13,-1
 77.3125 545.844 l 2,14,15
 46.2617 545.844 46.2617 545.844 24.2871 567.818 c 128,-1,16
 2.3125 589.793 2.3125 589.793 2.3125 620.844 c 128,-1,17
 2.3125 651.895 2.3125 651.895 24.2871 673.869 c 128,-1,18
 46.2617 695.844 46.2617 695.844 77.3125 695.844 c 2,0,-1
EndSplineSet
EndChar
StartChar: two
Encoding: 50 50 19
Width: 605
GlyphClass: 2
Flags: W
HStem: 3.75 150<198 518.642> 233.375 150.688<231.109 356.361> 551.889 147.861<192.137 370.8>
Fore
200 699.75 m 2,0,-1
 358 699.75 l 2,1,2
 450.294 699.75 450.294 699.75 506.344 634.886 c 128,-1,3
 562.393 570.021 562.393 570.021 562 471.75 c 0,4,5
 562 361.252 562 361.252 498.097 297.313 c 128,-1,6
 434.194 233.375 434.194 233.375 316.75 233.375 c 0,7,8
 250.872 233.375 250.872 233.375 224.436 219.32 c 128,-1,9
 198 205.266 198 205.266 198 153.75 c 1,10,-1
 488 153.75 l 2,11,12
 518.642 152.994 518.642 152.994 540.196 131.116 c 128,-1,13
 561.75 109.238 561.75 109.238 561.75 78.5312 c 0,14,15
 561.75 47.4814 561.75 47.4814 539.774 25.5059 c 128,-1,16
 517.8 3.53125 517.8 3.53125 486.75 3.53125 c 0,17,18
 484.413 3.53125 484.413 3.53125 481.344 3.75 c 2,19,-1
 128.75 3.75 l 2,20,21
 125.679 3.53125 125.679 3.53125 123.375 3.53125 c 0,22,23
 92.4785 3.53125 92.4785 3.53125 70.542 25.3174 c 128,-1,24
 48.6045 47.1025 48.6045 47.1025 48.375 77.9688 c 1,25,26
 48 78.5596 48 78.5596 48 79.1875 c 2,27,-1
 48 157.75 l 2,28,29
 48 262.149 48 262.149 121.965 322.662 c 128,-1,30
 195.929 383.175 195.929 383.175 307.28 384.062 c 0,31,32
 341.071 384.062 341.071 384.062 363.382 391.654 c 128,-1,33
 385.692 399.247 385.692 399.247 395.53 413.391 c 128,-1,34
 405.368 427.533 405.368 427.533 408.685 440.689 c 128,-1,35
 412 453.846 412 453.846 412 471.75 c 0,36,37
 412 517.743 412 517.743 382.318 534.152 c 128,-1,38
 352.637 550.562 352.637 550.562 292.094 550.562 c 0,39,40
 255.649 552.665 255.649 552.665 228.035 551.436 c 128,-1,41
 200.421 550.207 200.421 550.207 186.53 537.875 c 1,42,43
 164.402 502.875 164.402 502.875 123.125 502.875 c 0,44,45
 93.7607 502.875 93.7607 502.875 72.2764 522.774 c 128,-1,46
 50.79 542.674 50.79 542.674 48.4053 571.656 c 0,47,48
 48 574.466 48 574.466 48.125 577.844 c 0,49,-1
 48.1875 579.812 l 2,50,51
 48.3213 585.047 48.3213 585.047 48.9688 589.281 c 0,52,53
 55.1826 643.606 55.1826 643.606 96.6328 671.678 c 128,-1,54
 138.083 699.75 138.083 699.75 200 699.75 c 2,0,-1
EndSplineSet
EndChar
StartChar: three
Encoding: 51 51 20
Width: 605
GlyphClass: 2
Flags: W
HStem: -0.25 148.438<203.962 382.909> 268.812 150<255.415 380.927> 546.95 148.8<210.637 440.678>
VStem: 410.125 149.531<164.688 260.376 433.941 571.091>
Fore
222.125 695.75 m 2,0,-1
 357.656 695.75 l 2,1,2
 450.184 695.75 450.184 695.75 504.926 630.455 c 128,-1,3
 559.667 565.16 559.667 565.16 559.656 467.75 c 0,4,5
 559.656 423.363 559.656 423.363 551.697 398.213 c 128,-1,6
 543.738 373.063 543.738 373.063 519.656 345.75 c 1,7,8
 544.225 317.86 544.225 317.86 551.94 293.499 c 128,-1,9
 559.656 269.138 559.656 269.138 559.656 223.75 c 0,10,11
 559.656 123.438 559.656 123.438 506.001 61.5938 c 128,-1,12
 452.346 -0.25 452.346 -0.25 357.656 -0.25 c 2,13,-1
 222.125 -0.25 l 2,14,15
 179.197 -0.25 179.197 -0.25 138.497 13.415 c 128,-1,16
 97.7969 27.0801 97.7969 27.0801 69.3516 55.4902 c 128,-1,17
 40.9062 83.9004 40.9062 83.9004 40.9062 120.375 c 0,18,19
 40.9062 151.426 40.9062 151.426 62.8809 173.4 c 128,-1,20
 84.8555 195.375 84.8555 195.375 115.906 195.375 c 0,21,22
 147.447 195.375 147.447 195.375 169.531 172.781 c 1,23,24
 198.59 156.057 198.59 156.057 216.807 152.122 c 128,-1,25
 235.021 148.188 235.021 148.188 284.5 148.188 c 0,26,27
 360.199 148.188 360.199 148.188 385.162 163.253 c 128,-1,28
 410.125 178.317 410.125 178.317 410.125 223.75 c 0,29,30
 410.125 251.924 410.125 251.924 385.701 260.368 c 128,-1,31
 361.278 268.812 361.278 268.812 295.781 268.812 c 0,32,33
 264.73 268.812 264.73 268.812 242.756 290.787 c 128,-1,34
 220.781 312.762 220.781 312.762 220.781 343.812 c 128,-1,35
 220.781 374.863 220.781 374.863 242.756 396.838 c 128,-1,36
 264.73 418.812 264.73 418.812 295.781 418.812 c 0,37,38
 323.379 418.229 323.379 418.229 343.25 418.728 c 128,-1,39
 363.12 419.227 363.12 419.227 376.054 420.435 c 128,-1,40
 388.987 421.643 388.987 421.643 396.559 426.878 c 128,-1,41
 404.13 432.114 404.13 432.114 407.127 441.002 c 128,-1,42
 410.125 449.891 410.125 449.891 410.125 465.75 c 0,43,44
 410.125 546.781 410.125 546.781 308.281 546.781 c 0,45,46
 277.153 546.827 277.153 546.827 256.346 546.95 c 128,-1,47
 235.538 547.073 235.538 547.073 220.721 545.344 c 128,-1,48
 205.903 543.615 205.903 543.615 194.57 538.792 c 128,-1,49
 183.238 533.97 183.238 533.97 171.062 524.125 c 1,50,51
 148.777 499.938 148.777 499.938 115.906 499.938 c 0,52,53
 84.8555 499.938 84.8555 499.938 62.8809 521.912 c 128,-1,54
 40.9062 543.887 40.9062 543.887 40.9062 574.938 c 0,55,56
 40.9062 614.513 40.9062 614.513 69.8887 643.003 c 128,-1,57
 98.8711 671.493 98.8711 671.493 138.703 683.621 c 128,-1,58
 178.535 695.75 178.535 695.75 222.125 695.75 c 2,0,-1
EndSplineSet
EndChar
StartChar: four
Encoding: 52 52 21
Width: 643
GlyphClass: 2
Flags: W
HStem: 132.531 148.844<215.276 358.781 509.5 565.862>
VStem: 358.781 150.719<48.4492 132.531 281.375 436.924>
Fore
434.875 702.625 m 0,0,1
 465.924 702.625 465.924 702.625 487.899 680.65 c 128,-1,2
 509.875 658.675 509.875 658.675 509.875 627.625 c 2,3,-1
 509.5 281.375 l 1,4,-1
 534.812 282.344 l 2,5,6
 565.862 282.344 565.862 282.344 587.838 260.369 c 128,-1,7
 609.812 238.394 609.812 238.394 609.812 207.344 c 128,-1,8
 609.812 176.294 609.812 176.294 587.838 154.318 c 128,-1,9
 565.862 132.344 565.862 132.344 534.812 132.344 c 0,10,11
 510.066 132.544 510.066 132.544 509.5 132.531 c 1,12,-1
 509.875 79.5 l 2,13,14
 509.874 48.4492 509.874 48.4492 487.899 26.4746 c 128,-1,15
 465.925 4.5 465.925 4.5 434.875 4.5 c 0,16,17
 404.439 4.5 404.439 4.5 382.639 25.7188 c 128,-1,18
 360.837 46.9375 360.837 46.9375 359.938 77.25 c 2,19,-1
 358.781 132.531 l 1,20,-1
 158.453 132.25 l 2,21,22
 102.547 132.25 102.547 132.25 67.2891 169.493 c 128,-1,23
 32.0312 206.735 32.0312 206.735 32.0312 266.854 c 0,24,25
 32.0312 279.754 32.0312 279.754 41.0605 297.567 c 128,-1,26
 50.0908 315.382 50.0908 315.382 59.1211 326.745 c 2,27,-1
 68.1504 338.109 l 1,28,-1
 377.719 676.188 l 2,29,30
 400.202 702.625 400.202 702.625 434.875 702.625 c 0,0,1
358.781 436.924 m 1,31,-1
 215.276 281.375 l 1,32,-1
 358.781 281.375 l 1,33,-1
 358.781 436.924 l 1,31,-1
EndSplineSet
EndChar
StartChar: five
Encoding: 53 53 22
Width: 611
GlyphClass: 2
Flags: W
HStem: -0.25 150<204.067 349.736> 317.469 150.281<204.5 353.621> 546.531 150<204.5 536.366>
Fore
496 696.531 m 2,0,1
 527.051 696.531 527.051 696.531 549.025 674.557 c 128,-1,2
 571 652.582 571 652.582 571 621.531 c 128,-1,3
 571 590.48 571 590.48 549.025 568.506 c 128,-1,4
 527.051 546.531 527.051 546.531 496 546.531 c 2,5,-1
 204.5 547 l 1,6,-1
 204.5 467.75 l 1,7,-1
 280.5 467.75 l 2,8,9
 439.934 467.75 439.934 467.75 505.217 409.314 c 128,-1,10
 570.5 350.88 570.5 350.88 570.5 223.75 c 0,11,12
 570.5 116.718 570.5 116.718 512.839 58.2334 c 128,-1,13
 455.178 -0.25 455.178 -0.25 354.5 -0.25 c 2,14,-1
 206.5 -0.25 l 2,15,16
 148.077 -0.25 148.077 -0.25 101.055 38.1855 c 128,-1,17
 54.0312 76.6211 54.0312 76.6211 54.0312 126 c 0,18,19
 54.0312 157.051 54.0312 157.051 76.0059 179.025 c 128,-1,20
 97.9805 201 97.9805 201 129.031 201 c 0,21,22
 169.18 201 169.18 201 191.5 167.406 c 1,23,24
 209.943 149.979 209.943 149.979 229.531 149.75 c 2,25,-1
 312.5 149.75 l 2,26,27
 338.635 151.424 338.635 151.424 350.098 152.663 c 128,-1,28
 361.56 153.901 361.56 153.901 377.733 158.149 c 128,-1,29
 393.906 162.397 393.906 162.397 400.396 169.766 c 128,-1,30
 406.884 177.133 406.884 177.133 412.322 190.447 c 128,-1,31
 417.76 203.762 417.76 203.762 418.5 223.75 c 0,32,33
 418.5 272.442 418.5 272.442 386.061 295.097 c 128,-1,34
 353.621 317.75 353.621 317.75 286.5 317.75 c 2,35,-1
 127.812 317.469 l 2,36,37
 96.7617 317.469 96.7617 317.469 74.7871 339.443 c 128,-1,38
 52.8125 361.418 52.8125 361.418 52.8125 392.469 c 2,39,-1
 52.8125 620.844 l 2,40,41
 52.8125 651.711 52.8125 651.711 75.6914 673.777 c 128,-1,42
 98.5713 695.844 98.5713 695.844 129.812 695.844 c 2,43,-1
 496 696.531 l 2,0,1
EndSplineSet
EndChar
StartChar: six
Encoding: 54 54 23
Width: 589
GlyphClass: 2
Flags: W
HStem: 276.406 145.219<256.801 365.428> 544.75 148.375<234.896 354.616>
VStem: 51.9707 150<179.11 261.069 403.688 518.579>
Fore
297.752 693.125 m 0,0,1
 404.3 693.125 404.3 693.125 473.275 639.321 c 128,-1,2
 542.252 585.517 542.252 585.517 542.252 508.656 c 0,3,4
 542.252 477.605 542.252 477.605 520.277 455.631 c 128,-1,5
 498.303 433.656 498.303 433.656 467.252 433.656 c 0,6,7
 439.743 433.656 439.743 433.656 418.896 451.329 c 128,-1,8
 398.049 469.001 398.049 469.001 393.377 495.594 c 1,9,10
 393.096 495.468 393.096 495.468 393.033 495.438 c 1,11,12
 393.033 515.507 393.033 515.507 367.238 530.129 c 128,-1,13
 341.443 544.75 341.443 544.75 297.533 544.75 c 0,14,15
 249.351 544.75 249.351 544.75 225.66 524.415 c 128,-1,16
 201.971 504.08 201.971 504.08 201.971 455.75 c 2,17,-1
 201.971 403.688 l 1,18,19
 236.129 421.625 236.129 421.625 300.002 421.625 c 0,20,21
 394.414 421.625 394.414 421.625 447.855 398.141 c 128,-1,22
 501.296 374.656 501.296 374.656 522.633 328.24 c 128,-1,23
 543.971 281.825 543.971 281.825 543.971 201.75 c 0,24,25
 543.971 148.081 543.971 148.081 525.051 108.379 c 128,-1,26
 506.13 68.6777 506.13 68.6777 471.438 45.3389 c 128,-1,27
 436.746 22.001 436.746 22.001 392.121 10.876 c 128,-1,28
 347.497 -0.25 347.497 -0.25 291.971 -0.25 c 0,29,30
 197.162 -0.450195 197.162 -0.450195 124.566 64.4961 c 128,-1,31
 51.9707 129.442 51.9707 129.442 51.9707 223.75 c 2,32,-1
 51.9707 511.75 l 2,33,34
 51.9707 594.135 51.9707 594.135 124 643.63 c 128,-1,35
 196.029 693.125 196.029 693.125 297.752 693.125 c 0,0,1
319.033 276.406 m 0,36,37
 271.162 276.406 271.162 276.406 236.566 266.047 c 128,-1,38
 201.971 255.688 201.971 255.688 201.971 237.75 c 0,39,40
 201.971 192.643 201.971 192.643 221.728 172.69 c 128,-1,41
 241.484 152.738 241.484 152.738 291.971 149.594 c 0,42,43
 333.195 149.594 333.195 149.594 362.583 166.178 c 128,-1,44
 391.971 182.761 391.971 182.761 391.971 211.75 c 0,45,46
 391.971 243.038 391.971 243.038 373.346 259.723 c 128,-1,47
 354.722 276.406 354.722 276.406 319.033 276.406 c 0,36,37
EndSplineSet
EndChar
StartChar: seven
Encoding: 55 55 24
Width: 631
GlyphClass: 2
Flags: W
HStem: 534.625 150<65.7912 397.376>
Fore
106.157 684.625 m 0,0,1
 111.872 684.625 111.872 684.625 117.594 683.75 c 1,2,-1
 526.438 683.75 l 1,3,-1
 544.438 683.75 l 1,4,5
 550.16 684.625 550.16 684.625 555.844 684.625 c 0,6,7
 586.895 684.625 586.895 684.625 608.869 662.65 c 128,-1,8
 630.844 640.676 630.844 640.676 630.844 609.625 c 0,9,10
 630.844 576.42 630.844 576.42 606.282 554.094 c 1,11,-1
 169 21.4062 l 2,12,13
 146.74 -12.4688 146.74 -12.4688 106.312 -12.4688 c 0,14,15
 75.2627 -12.4688 75.2627 -12.4688 53.2881 9.50684 c 128,-1,16
 31.3125 31.4814 31.3125 31.4814 31.3125 62.5312 c 0,17,18
 31.3125 93.8555 31.3125 93.8555 53.6875 115.906 c 2,19,-1
 397.376 534.875 l 1,20,-1
 112.157 534.875 l 2,21,22
 108.996 534.625 108.996 534.625 106.157 534.625 c 0,23,24
 75.1064 534.625 75.1064 534.625 53.1318 556.6 c 128,-1,25
 31.1572 578.574 31.1572 578.574 31.1572 609.625 c 128,-1,26
 31.1572 640.676 31.1572 640.676 53.1318 662.65 c 128,-1,27
 75.1064 684.625 75.1064 684.625 106.157 684.625 c 0,0,1
EndSplineSet
EndChar
StartChar: eight
Encoding: 56 56 25
Width: 639
GlyphClass: 2
Flags: W
HStem: 0.125 147.646<158.784 376.264> 264.336 153.205<248.047 379.43> 550.431 148.882<239.863 386.536>
VStem: 45 150<129.777 255.718>
Fore
49 493.75 m 0,0,1
 49 599.301 49 599.301 120.732 649.307 c 128,-1,2
 192.465 699.312 192.465 699.312 317.062 699.312 c 0,3,4
 440.82 699.312 440.82 699.312 511.91 648.423 c 128,-1,5
 583 597.533 583 597.533 583 493.75 c 0,6,7
 583 407.75 583 407.75 517 345.75 c 1,8,9
 557.186 319.089 557.186 319.089 572.093 288.194 c 128,-1,10
 587 257.299 587 257.299 587 199.75 c 0,11,12
 587 0.125 587 0.125 315.188 0.125 c 0,13,14
 45 0.125 45 0.125 45 199.75 c 0,15,16
 45 257.581 45 257.581 60.2881 287.853 c 128,-1,17
 75.5771 318.124 75.5771 318.124 115 343.75 c 1,18,19
 47.001 403.75 47.001 403.75 49 493.75 c 0,0,1
316.438 550.431 m 0,20,21
 257.534 550.431 257.534 550.431 228.267 535.947 c 128,-1,22
 199 521.464 199 521.464 199 485.75 c 0,23,24
 199.432 466.466 199.432 466.466 206.128 453.182 c 128,-1,25
 212.824 439.898 212.824 439.898 222.188 432.833 c 128,-1,26
 231.552 425.769 231.552 425.769 248.562 422.176 c 128,-1,27
 265.571 418.583 265.571 418.583 279.705 417.921 c 128,-1,28
 293.839 417.259 293.839 417.259 317 417.541 c 0,29,30
 340.534 417.541 340.534 417.541 354.751 418.362 c 128,-1,31
 368.969 419.185 368.969 419.185 386.181 422.998 c 128,-1,32
 403.394 426.812 403.394 426.812 412.694 434.037 c 128,-1,33
 421.995 441.263 421.995 441.263 428.497 454.758 c 128,-1,34
 435 468.253 435 468.253 435 487.75 c 0,35,36
 435 519.924 435 519.924 402.68 535.178 c 128,-1,37
 370.359 550.431 370.359 550.431 316.438 550.431 c 0,20,21
318.125 264.336 m 0,38,39
 249.168 264.336 249.168 264.336 222.084 254.492 c 128,-1,40
 195 244.648 195 244.648 195 207.75 c 0,41,42
 195 147.771 195 147.771 315.719 147.771 c 0,43,44
 344.206 147.771 344.206 147.771 362.878 149.601 c 128,-1,45
 381.55 151.431 381.55 151.431 400.173 157.148 c 128,-1,46
 418.797 162.866 418.797 162.866 427.898 175.479 c 128,-1,47
 437 188.093 437 188.093 437 207.75 c 0,48,49
 437 226.201 437 226.201 428.554 237.988 c 128,-1,50
 420.106 249.774 420.106 249.774 402.347 255.271 c 128,-1,51
 384.588 260.77 384.588 260.77 365.87 262.553 c 128,-1,52
 347.151 264.336 347.151 264.336 318.125 264.336 c 0,38,39
EndSplineSet
EndChar
StartChar: nine
Encoding: 57 57 26
Width: 571
GlyphClass: 2
Flags: W
HStem: 0.40625 150.5<202.392 338.41> 543.844 149.906<152.078 350.426>
VStem: 31 150<388.5 559.472> 369 152<171.591 287.781 432.944 516.046>
Fore
283.875 693.75 m 0,0,1
 398.065 693.75 398.065 693.75 459.533 629.503 c 128,-1,2
 521 565.256 521 565.256 521 467.75 c 2,3,-1
 521 183.75 l 2,4,5
 521 98.8516 521 98.8516 456.783 49.6289 c 128,-1,6
 392.565 0.40625 392.565 0.40625 277 0.40625 c 0,7,8
 243.344 0.40625 243.344 0.40625 212.914 4.16992 c 128,-1,9
 182.483 7.93457 182.483 7.93457 149.967 17.4277 c 128,-1,10
 117.45 26.9219 117.45 26.9219 98.0371 47.4121 c 128,-1,11
 78.625 67.9023 78.625 67.9023 78.625 97.2188 c 0,12,13
 78.625 128.27 78.625 128.27 100.6 150.244 c 128,-1,14
 122.574 172.219 122.574 172.219 153.625 172.219 c 0,15,16
 186.59 172.219 186.59 172.219 203.405 157.281 c 1,17,18
 220.911 150.906 220.911 150.906 276.688 150.906 c 0,19,20
 324.166 150.906 324.166 150.906 346.583 167.664 c 128,-1,21
 369 184.421 369 184.421 369 227.188 c 2,22,-1
 369 287.781 l 1,23,24
 347.675 278.114 347.675 278.114 328.133 275.4 c 128,-1,25
 308.591 272.688 308.591 272.688 271.875 272.688 c 0,26,27
 157.562 272.688 157.562 272.688 94.2812 332.567 c 128,-1,28
 31 392.448 31 392.448 31 491.75 c 0,29,30
 31 587.666 31 587.666 101.397 640.708 c 128,-1,31
 171.795 693.75 171.795 693.75 283.875 693.75 c 0,0,1
277.405 543.844 m 0,32,33
 181 543.844 181 543.844 181 491.75 c 0,34,35
 181 412.327 181 412.327 275.25 420.062 c 0,36,37
 285.316 420.889 285.316 420.889 303.664 420.849 c 128,-1,38
 322.012 420.81 322.012 420.81 331.264 421.792 c 128,-1,39
 340.516 422.774 340.516 422.774 351.307 426.697 c 128,-1,40
 362.099 430.621 362.099 430.621 366.133 440.748 c 0,41,42
 369 447.946 369 447.946 369 467.75 c 0,43,44
 369 504.9 369 504.9 351.287 524.372 c 128,-1,45
 333.575 543.844 333.575 543.844 277.405 543.844 c 0,32,33
EndSplineSet
EndChar
StartChar: colon
Encoding: 58 58 27
Width: 323
GlyphClass: 2
Flags: W
VStem: 72 150<114.084 185.646 340.382 421.302>
Fore
222 154.45 m 2,0,1
 222 123.399 222 123.399 200.025 101.425 c 128,-1,2
 178.051 79.4492 178.051 79.4492 147 79.4492 c 128,-1,3
 115.949 79.4492 115.949 79.4492 93.9746 101.425 c 128,-1,4
 72 123.399 72 123.399 72 154.45 c 2,5,-1
 72 154.595 l 2,6,7
 72 185.646 72 185.646 93.9746 207.62 c 128,-1,8
 115.949 229.595 115.949 229.595 147 229.595 c 128,-1,9
 178.051 229.595 178.051 229.595 200.025 207.62 c 128,-1,10
 222 185.646 222 185.646 222 154.595 c 2,11,-1
 222 154.45 l 2,0,1
222 380.748 m 128,-1,13
 222 349.697 222 349.697 200.025 327.723 c 128,-1,14
 178.051 305.748 178.051 305.748 147 305.748 c 128,-1,15
 115.949 305.748 115.949 305.748 93.9746 327.723 c 128,-1,16
 72 349.697 72 349.697 72 388.349 c 128,-1,17
 72 427 72 427 93.9746 441.446 c 128,-1,18
 115.949 455.893 115.949 455.893 147 455.893 c 128,-1,19
 178.051 455.893 178.051 455.893 200.025 433.918 c 128,-1,12
 222 411.943 222 411.943 222 380.748 c 128,-1,13
EndSplineSet
EndChar
StartChar: semicolon
Encoding: 59 59 28
Width: 319
GlyphClass: 2
Flags: W
VStem: 82.7715 149.031<35.3632 170.089 378.838 459.758>
Fore
231.803 77.4697 m 2,0,1
 231.803 45.0801 231.803 45.0801 211.429 22.1025 c 128,-1,2
 191.055 -0.874023 191.055 -0.874023 159.115 -0.874023 c 0,3,4
 124.889 -0.874023 124.889 -0.874023 103.83 19.377 c 128,-1,5
 82.7715 39.6289 82.7715 39.6289 82.7715 74.6055 c 2,6,-1
 82.7715 139.54 l 2,7,8
 82.7715 170.089 82.7715 170.089 103.742 191.363 c 128,-1,9
 124.712 212.639 124.712 212.639 158.004 212.639 c 128,-1,10
 191.491 212.639 191.491 212.639 211.646 192.555 c 128,-1,11
 231.803 172.471 231.803 172.471 231.803 141.494 c 2,12,-1
 231.803 77.4697 l 2,0,1
231.717 419.203 m 128,-1,14
 231.717 388.153 231.717 388.153 209.742 366.178 c 128,-1,15
 187.768 344.203 187.768 344.203 156.717 344.203 c 128,-1,16
 125.666 344.203 125.666 344.203 103.691 366.178 c 128,-1,17
 81.7168 388.153 81.7168 388.153 81.7168 419.203 c 128,-1,18
 81.7168 450.399 81.7168 450.399 103.691 472.374 c 128,-1,19
 125.666 494.349 125.666 494.349 156.717 494.349 c 128,-1,20
 187.768 494.349 187.768 494.349 209.742 472.374 c 128,-1,13
 231.717 450.399 231.717 450.399 231.717 419.203 c 128,-1,14
EndSplineSet
EndChar
StartChar: less
Encoding: 60 60 29
Width: 561
GlyphClass: 2
Flags: W
VStem: 21 432<395.75 670.719>
Fore
378 745.719 m 4,0,1
 409.049 745.719 409.049 745.719 431.024 723.744 c 132,-1,2
 452.999 701.769 452.999 701.769 453 670.719 c 4,3,4
 453 638.764 453 638.764 429.874 616.594 c 6,5,-1
 203.437 371.75 l 5,6,-1
 425.25 129.969 l 6,7,8
 451 107.495 451 107.495 451 73.4688 c 4,9,10
 451 42.418 451 42.418 429.025 20.4434 c 132,-1,11
 407.051 -1.53125 407.051 -1.53125 376 -1.53125 c 4,12,13
 347.489 -1.53125 347.489 -1.53125 326.187 17.4062 c 5,14,15
 325.64 17.1104 325.64 17.1104 325 17.75 c 6,16,-1
 33 333.75 l 6,17,18
 6.99609 361.75 6.99609 361.75 21 395.75 c 4,19,20
 24.9961 403.75 24.9961 403.75 33 409.75 c 5,21,-1
 321.124 719.594 l 6,22,23
 322.879 721.634 322.879 721.634 325 723.75 c 4,24,25
 325.677 724.69 325.677 724.69 326.406 725.156 c 5,26,27
 348.16 745.719 348.16 745.719 378 745.719 c 4,0,1
EndSplineSet
EndChar
StartChar: equal
Encoding: 61 61 30
Width: 617
GlyphClass: 2
Flags: W
HStem: 185.318 149.031<98.2369 487.583> 420.747 149.03<98.2369 487.583>
Fore
140.345 185.318 m 2,0,1
 107.954 185.318 107.954 185.318 84.9766 205.692 c 128,-1,2
 62 226.066 62 226.066 62 258.005 c 0,3,4
 62 292.232 62 292.232 82.252 313.291 c 128,-1,5
 102.504 334.35 102.504 334.35 137.48 334.35 c 2,6,-1
 457.034 334.35 l 2,7,8
 487.583 334.35 487.583 334.35 508.858 313.379 c 128,-1,9
 530.134 292.409 530.134 292.409 530.134 259.116 c 128,-1,10
 530.134 225.629 530.134 225.629 510.049 205.474 c 128,-1,11
 489.965 185.318 489.965 185.318 458.988 185.318 c 2,12,-1
 140.345 185.318 l 2,0,1
140.345 420.747 m 2,13,14
 107.954 420.747 107.954 420.747 84.9766 441.121 c 128,-1,15
 62 461.494 62 461.494 62 493.434 c 0,16,17
 62 527.66 62 527.66 82.252 548.719 c 128,-1,18
 102.504 569.777 102.504 569.777 137.48 569.777 c 2,19,-1
 457.034 569.777 l 2,20,21
 487.583 569.777 487.583 569.777 508.858 548.808 c 128,-1,22
 530.134 527.838 530.134 527.838 530.134 494.545 c 128,-1,23
 530.134 461.058 530.134 461.058 510.049 440.902 c 128,-1,24
 489.965 420.747 489.965 420.747 458.988 420.747 c 2,25,-1
 140.345 420.747 l 2,13,14
EndSplineSet
EndChar
StartChar: greater
Encoding: 62 62 31
Width: 563
GlyphClass: 2
Flags: W
VStem: 62 432<395.75 670.719>
Fore
137 745.719 m 0,0,1
 105.951 745.719 105.951 745.719 83.9756 723.744 c 128,-1,2
 62.001 701.769 62.001 701.769 62 670.719 c 0,3,4
 62 638.764 62 638.764 85.126 616.594 c 2,5,-1
 311.563 371.75 l 1,6,-1
 89.75 129.969 l 2,7,8
 64 107.495 64 107.495 64 73.4688 c 0,9,10
 64 42.418 64 42.418 85.9746 20.4434 c 128,-1,11
 107.949 -1.53125 107.949 -1.53125 139 -1.53125 c 0,12,13
 167.511 -1.53125 167.511 -1.53125 188.813 17.4062 c 1,14,15
 189.36 17.1104 189.36 17.1104 190 17.75 c 2,16,-1
 482 333.75 l 2,17,18
 508.004 361.75 508.004 361.75 494 395.75 c 0,19,20
 490.004 403.75 490.004 403.75 482 409.75 c 1,21,-1
 193.876 719.594 l 2,22,23
 192.121 721.634 192.121 721.634 190 723.75 c 0,24,25
 189.323 724.69 189.323 724.69 188.594 725.156 c 1,26,27
 166.84 745.719 166.84 745.719 137 745.719 c 0,0,1
EndSplineSet
EndChar
StartChar: question
Encoding: 63 63 32
Width: 657
GlyphClass: 2
Flags: W
HStem: 568.008 147.742<257.257 369.193>
VStem: 161.47 149.595<41.5969 122.517 248.042 356.182>
Fore
311.472 81.9629 m 132,-1,1
 311.472 50.9121 311.472 50.9121 289.497 28.9375 c 132,-1,2
 267.522 6.96289 267.522 6.96289 236.472 6.96289 c 132,-1,3
 205.421 6.96289 205.421 6.96289 183.446 28.9375 c 132,-1,4
 161.472 50.9121 161.472 50.9121 161.472 81.9629 c 132,-1,5
 161.472 113.158 161.472 113.158 183.446 135.133 c 132,-1,6
 205.421 157.107 205.421 157.107 236.472 157.107 c 132,-1,7
 267.522 157.107 267.522 157.107 289.497 135.133 c 132,-1,0
 311.472 113.158 311.472 113.158 311.472 81.9629 c 132,-1,1
306.367 715.75 m 4,8,9
 411.598 715.75 411.598 715.75 483.878 659.629 c 132,-1,10
 556.158 603.507 556.158 603.507 556.158 539.75 c 4,11,12
 556.158 503.117 556.158 503.117 544 468.671 c 132,-1,13
 531.843 434.225 531.843 434.225 507.732 404.474 c 132,-1,14
 483.621 374.724 483.621 374.724 441.791 356.709 c 132,-1,15
 399.962 338.695 399.962 338.695 346.285 338.695 c 4,16,17
 311.064 338.695 311.064 338.695 311.064 280.406 c 4,18,19
 311.064 250.344 311.064 250.344 288.972 231.875 c 132,-1,20
 266.879 213.406 266.879 213.406 236.47 213.406 c 4,21,22
 205.42 213.406 205.42 213.406 183.445 235.382 c 132,-1,23
 161.47 257.356 161.47 257.356 161.47 288.406 c 4,24,25
 161.47 377.007 161.47 377.007 213.522 433.637 c 132,-1,26
 265.575 490.267 265.575 490.267 342.549 490.267 c 4,27,28
 370.287 487.444 370.287 487.444 388.113 496.41 c 132,-1,29
 405.939 505.375 405.939 505.375 405.939 525.75 c 4,30,31
 405.939 536.582 405.939 536.582 404.096 543.995 c 132,-1,32
 402.253 551.409 402.253 551.409 394.904 556.06 c 132,-1,33
 387.557 560.71 387.557 560.71 383.105 563.186 c 132,-1,34
 378.654 565.662 378.654 565.662 362.855 566.705 c 132,-1,35
 347.056 567.749 347.056 567.749 339.6 567.857 c 132,-1,36
 332.145 567.965 332.145 567.965 308.202 567.965 c 4,37,38
 269.014 569.01 269.014 569.01 223.055 544.739 c 132,-1,39
 177.097 520.469 177.097 520.469 148.376 520.469 c 4,40,41
 117.325 520.469 117.325 520.469 95.3506 542.443 c 132,-1,42
 73.376 564.418 73.376 564.418 73.376 595.469 c 4,43,44
 73.376 634.485 73.376 634.485 109.279 662.704 c 132,-1,45
 145.182 690.923 145.182 690.923 196.619 703.336 c 132,-1,46
 248.057 715.75 248.057 715.75 306.367 715.75 c 4,8,9
EndSplineSet
EndChar
StartChar: at
Encoding: 64 64 33
Width: 898
GlyphClass: 2
Flags: W
HStem: 329.375 148.625<361.677 474.582> 500.656 148.969<294.16 605.057>
VStem: 60 150.188<177.233 391.144> 232 148.188<205.322 331.096> 488 148.188<197.2 303.126> 700 150.188<135.706 408.846>
Fore
436.718 649.625 m 0,0,1
 623.337 649.625 623.337 649.625 737.448 538.916 c 0,2,3
 850.188 429.54 850.188 429.54 850.188 236.625 c 0,4,5
 850.188 71.6553 850.188 71.6553 790.521 -15.8613 c 0,6,7
 731.592 -102.3 731.592 -102.3 641.646 -103.378 c 0,8,9
 573.796 -104.191 573.796 -104.191 537.727 -70.0156 c 128,-1,10
 501.658 -35.8408 501.658 -35.8408 490.938 32.625 c 1,11,12
 482.202 30.7656 482.202 30.7656 436.776 23.9521 c 1,13,14
 348.053 23.9521 348.053 23.9521 290.945 88.7549 c 0,15,16
 232 155.646 232 155.646 232 252 c 0,17,18
 232 312.843 232 312.843 253.51 362.65 c 128,-1,19
 275.021 412.458 275.021 412.458 323.566 445.229 c 0,20,21
 373.838 479.166 373.838 479.166 440.875 478 c 0,22,23
 533.178 476.395 533.178 476.395 585.502 419.948 c 0,24,25
 634.815 366.748 634.815 366.748 636.188 268 c 0,26,27
 637.203 194.797 637.203 194.797 636.427 177.105 c 0,28,29
 634.241 127.209 634.241 127.209 638.909 85.3389 c 128,-1,30
 643.577 43.4688 643.577 43.4688 658 43.4688 c 0,31,32
 679.018 43.4688 679.018 43.4688 689.509 103.006 c 128,-1,33
 700 162.543 700 162.543 700 252 c 0,34,35
 700 372.65 700 372.65 634.803 433.932 c 0,36,37
 566.491 498.141 566.491 498.141 437.938 500.656 c 0,38,39
 326.344 502.84 326.344 502.84 267.037 434.732 c 0,40,41
 210.188 369.443 210.188 369.443 210.188 252 c 0,42,43
 210.188 177.232 210.188 177.232 243.148 113.641 c 128,-1,44
 276.109 50.0498 276.109 50.0498 321.12 34.5625 c 1,45,46
 348.406 31.1201 348.406 31.1201 364.969 10.2119 c 128,-1,47
 381.53 -10.6963 381.53 -10.6963 381.53 -39.8125 c 0,48,49
 381.53 -70.8633 381.53 -70.8633 359.556 -92.8379 c 128,-1,50
 337.581 -114.812 337.581 -114.812 306.53 -114.812 c 0,51,52
 252.127 -114.812 252.127 -114.812 204.252 -78.8242 c 128,-1,53
 156.377 -42.8359 156.377 -42.8359 125.752 12.4316 c 128,-1,54
 95.127 67.6992 95.127 67.6992 77.5635 131.094 c 128,-1,55
 60 194.487 60 194.487 60 252 c 0,56,57
 60 359.034 60 359.034 106.423 449.44 c 128,-1,58
 152.846 539.847 152.846 539.847 239.951 594.736 c 128,-1,59
 327.058 649.625 327.058 649.625 436.718 649.625 c 0,0,1
436.718 329.375 m 0,60,61
 378.994 329.366 378.994 329.366 380.188 251.25 c 0,62,63
 380.726 215.921 380.726 215.921 397.234 194.804 c 0,64,65
 412.528 175.25 412.528 175.25 438.78 175.25 c 0,66,67
 467.438 175.25 467.438 175.25 477.719 192.148 c 128,-1,68
 488 209.046 488 209.046 488 248.531 c 0,69,70
 488 290.527 488 290.527 476.922 309.951 c 128,-1,71
 465.844 329.375 465.844 329.375 436.718 329.375 c 0,60,61
EndSplineSet
EndChar
StartChar: bracketleft
Encoding: 91 91 60
Width: 469
GlyphClass: 2
Flags: W
HStem: 593.438 149.75<202.537 318.888>
VStem: 61.7852 151.313<150.138 593.75>
Fore
137.099 743.75 m 6,0,-1
 278.41 743.188 l 6,1,2
 309.547 743.063 309.547 743.063 334.098 720.747 c 132,-1,3
 358.785 698.307 358.785 698.307 358.785 668.438 c 4,4,5
 358.785 637.387 358.785 637.387 336.811 615.412 c 132,-1,6
 314.836 593.438 314.836 593.438 283.785 593.438 c 4,7,8
 274.058 593.459 274.058 593.459 250.074 593.608 c 132,-1,9
 226.09 593.758 226.09 593.758 213.099 593.75 c 5,10,-1
 213.099 150.138 l 5,11,-1
 283.785 150.062 l 6,12,13
 314.869 150.029 314.869 150.029 336.811 128.088 c 132,-1,14
 358.785 106.113 358.785 106.113 358.785 75.0625 c 4,15,16
 358.785 44.7588 358.785 44.7588 336.018 22.4268 c 132,-1,17
 313.25 0.09375 313.25 0.09375 282.941 0.09375 c 5,18,-1
 283.035 -0.25 l 5,19,-1
 134.223 0.125 l 6,20,21
 104.934 0.199219 104.934 0.199219 82.9004 22.9287 c 4,22,23
 61.7852 44.7119 61.7852 44.7119 61.7852 75.0625 c 4,24,25
 63.085 163.378 63.085 163.378 63.123 260.757 c 132,-1,26
 63.1621 358.135 63.1621 358.135 62.5 482.706 c 132,-1,27
 61.8379 607.277 61.8379 607.277 61.7852 668.438 c 4,28,29
 61.7852 698.544 61.7852 698.544 84.5518 721.146 c 132,-1,30
 107.438 743.868 107.438 743.868 137.099 743.75 c 6,0,-1
EndSplineSet
EndChar
StartChar: backslash
Encoding: 92 92 61
Width: 702
GlyphClass: 2
Flags: W
Fore
132.5 699.156 m 0,0,1
 101.449 699.156 101.449 699.156 79.4746 677.182 c 128,-1,2
 57.5 655.207 57.5 655.207 57.5 624.156 c 0,3,4
 57.5 596.527 57.5 596.527 75.4688 575.5 c 2,5,-1
 476.25 41.2188 l 2,6,7
 497.851 3.0625 497.851 3.0625 541.562 3.0625 c 0,8,9
 572.612 3.0625 572.612 3.0625 594.588 25.0371 c 128,-1,10
 616.562 47.0127 616.562 47.0127 616.562 78.0625 c 0,11,12
 616.562 101.471 616.562 101.471 603.219 120.719 c 2,13,-1
 192.875 668.625 l 2,14,15
 170.348 699.156 170.348 699.156 132.5 699.156 c 0,0,1
EndSplineSet
EndChar
StartChar: bracketright
Encoding: 93 93 62
Width: 473
GlyphClass: 2
Flags: W
HStem: -0.25 150.388<119.416 221.187> 593.438 149.75<115.397 231.748>
VStem: 221.187 151.313<150.138 593.75>
Fore
297.187 743.75 m 2,0,-1
 155.875 743.188 l 2,1,2
 124.738 743.063 124.738 743.063 100.188 720.747 c 128,-1,3
 75.5 698.307 75.5 698.307 75.5 668.438 c 0,4,5
 75.5 637.387 75.5 637.387 97.4746 615.412 c 128,-1,6
 119.449 593.438 119.449 593.438 150.5 593.438 c 0,7,8
 160.228 593.459 160.228 593.459 184.211 593.608 c 128,-1,9
 208.195 593.758 208.195 593.758 221.187 593.75 c 1,10,-1
 221.187 150.138 l 1,11,-1
 150.5 150.062 l 2,12,13
 119.416 150.029 119.416 150.029 97.4746 128.088 c 128,-1,14
 75.5 106.113 75.5 106.113 75.5 75.0625 c 0,15,16
 75.5 44.7588 75.5 44.7588 98.2676 22.4268 c 128,-1,17
 121.035 0.09375 121.035 0.09375 151.344 0.09375 c 1,18,-1
 151.25 -0.25 l 1,19,-1
 300.062 0.125 l 2,20,21
 329.352 0.199219 329.352 0.199219 351.385 22.9287 c 0,22,23
 372.5 44.7119 372.5 44.7119 372.5 75.0625 c 0,24,25
 371.2 163.378 371.2 163.378 371.162 260.757 c 128,-1,26
 371.123 358.135 371.123 358.135 371.785 482.706 c 128,-1,27
 372.447 607.277 372.447 607.277 372.5 668.438 c 0,28,29
 372.5 698.544 372.5 698.544 349.733 721.146 c 128,-1,30
 326.848 743.868 326.848 743.868 297.187 743.75 c 2,0,-1
EndSplineSet
EndChar
StartChar: asciicircum
Encoding: 94 94 63
Width: 569
GlyphClass: 2
Flags: W
HStem: 532.812 263.688<248.375 379.75 248.375 379.75>
VStem: 42 412.75<567.448 648.375 607.812 607.812>
Fore
248.375 796.5 m 0,0,1
 294.45 796.5 294.45 796.5 318.44 772.931 c 2,2,-1
 429 664.312 l 2,3,4
 454.75 639.015 454.75 639.015 454.75 607.812 c 128,-1,5
 454.75 576.762 454.75 576.762 432.775 554.787 c 128,-1,6
 410.801 532.812 410.801 532.812 379.75 532.812 c 0,7,8
 338.663 532.812 338.663 532.812 316.5 567.562 c 1,9,-1
 249.344 636 l 1,10,-1
 174.938 560.219 l 2,11,12
 148.03 532.812 148.03 532.812 117 532.812 c 128,-1,13
 85.9512 532.812 85.9512 532.812 63.9756 554.787 c 128,-1,14
 42 576.763 42 576.763 42 607.812 c 0,15,16
 42 645.596 42 645.596 72.4385 668.125 c 1,17,-1
 177.243 771.956 l 2,18,19
 202.018 796.5 202.018 796.5 248.375 796.5 c 0,0,1
EndSplineSet
EndChar
StartChar: underscore
Encoding: 95 95 64
Width: 639
GlyphClass: 2
Flags: W
HStem: -0.970703 149.03<68.6171 524.725>
Fore
110.724 -0.970703 m 2,0,1
 78.334 -0.970703 78.334 -0.970703 55.3564 19.4033 c 128,-1,2
 32.3799 39.7773 32.3799 39.7773 32.3799 71.7158 c 0,3,4
 32.3799 105.943 32.3799 105.943 52.6309 127.001 c 128,-1,5
 72.8818 148.06 72.8818 148.06 107.859 148.06 c 2,6,-1
 494.177 148.06 l 2,7,8
 524.725 148.06 524.725 148.06 546 127.09 c 128,-1,9
 567.275 106.119 567.275 106.119 567.275 72.8271 c 128,-1,10
 567.275 39.3408 567.275 39.3408 547.19 19.1846 c 128,-1,11
 527.106 -0.970703 527.106 -0.970703 496.131 -0.970703 c 2,12,-1
 110.724 -0.970703 l 2,0,1
EndSplineSet
EndChar
StartChar: grave
Encoding: 96 96 65
Width: 494
GlyphClass: 2
Flags: W
HStem: 490.779 224.938<117 300.906>
VStem: 42 333.906<565.779 640.717 565.779 640.717>
Fore
300.906 490.779 m 4,0,1
 331.957 490.779 331.957 490.779 353.932 512.754 c 132,-1,2
 375.906 534.729 375.906 534.729 375.906 565.779 c 5,3,4
 370.996 599.378 370.996 599.378 357.809 615.203 c 4,5,6
 350.396 624.1 350.396 624.1 312.281 639.936 c 6,7,-1
 155.312 705.154 l 5,8,9
 137.594 715.717 137.594 715.717 117 715.717 c 4,10,11
 85.9512 715.717 85.9512 715.717 63.9766 693.741 c 4,12,13
 39.9131 669.68 39.9131 669.68 42 640.717 c 4,14,15
 45.8389 587.443 45.8389 587.443 82.7812 572.561 c 6,16,-1
 272.125 496.279 l 6,17,18
 285.777 490.779 285.777 490.779 300.906 490.779 c 4,0,1
EndSplineSet
EndChar
StartChar: a
Encoding: 97 97 66
Width: 493
GlyphClass: 2
Flags: W
VStem: 300.649 149.531<174.361 285.405>
Fore
42.0684 234.975 m 0,0,1
 42.0684 342.582 42.0684 342.582 99.7568 398.479 c 128,-1,2
 157.445 454.375 157.445 454.375 250.586 454.375 c 0,3,4
 296.354 454.375 296.354 454.375 335.312 436.295 c 128,-1,5
 374.271 418.216 374.271 418.216 398.647 389.826 c 128,-1,6
 423.024 361.438 423.024 361.438 436.603 328.406 c 128,-1,7
 450.181 295.374 450.181 295.374 450.181 263.75 c 2,8,-1
 450.181 59.75 l 2,9,10
 450.181 24.6504 450.181 24.6504 430.6 7.15332 c 128,-1,11
 411.018 -10.3438 411.018 -10.3438 376.742 -10.3438 c 0,12,13
 352.735 -10.3438 352.735 -10.3438 337.98 -4.6709 c 128,-1,14
 323.227 1.00293 323.227 1.00293 311.836 18.0625 c 1,15,16
 311.549 17.9922 311.549 17.9922 287.723 9.64746 c 0,17,18
 266.824 2.3291 266.824 2.3291 251.336 2.875 c 0,19,20
 212.558 4.24121 212.558 4.24121 191.536 8.50293 c 0,21,22
 163.775 14.1309 163.775 14.1309 135.422 29.8887 c 128,-1,23
 107.069 45.6475 107.069 45.6475 87.1406 70.7188 c 128,-1,24
 67.2129 95.79 67.2129 95.79 54.6406 137.853 c 128,-1,25
 42.0684 179.914 42.0684 179.914 42.0684 234.975 c 0,0,1
300.649 227.814 m 0,26,27
 300.649 272.115 300.649 272.115 288.711 289.604 c 128,-1,28
 276.772 307.092 276.772 307.092 248.181 307.092 c 128,-1,29
 219.762 307.092 219.762 307.092 204.861 288.866 c 128,-1,30
 189.961 270.641 189.961 270.641 189.961 227.027 c 0,31,32
 189.961 195.191 189.961 195.191 205.448 171.941 c 128,-1,33
 220.936 148.69 220.936 148.69 246.618 148.69 c 0,34,35
 275.101 148.69 275.101 148.69 287.875 167.693 c 128,-1,36
 300.649 186.696 300.649 186.696 300.649 227.814 c 0,26,27
EndSplineSet
KernsSLIFO: 75 -48 0 0 15 -84 0 0 13 -388 0 0
EndChar
StartChar: b
Encoding: 98 98 67
Width: 515
GlyphClass: 2
Flags: W
VStem: 50.2188 148<225.103 307.648 466.438 626.924> 326.219 148<179.041 292.115>
Fore
50.2188 583.75 m 6,0,1
 50.2188 618.43 50.2188 618.43 69.7539 638.934 c 132,-1,2
 89.2881 659.438 89.2881 659.438 122.249 659.438 c 4,3,4
 154.309 659.438 154.309 659.438 176.264 638.199 c 132,-1,5
 198.219 616.961 198.219 616.961 198.219 583.75 c 6,6,-1
 198.219 466.438 l 5,7,8
 229.073 473.151 229.073 473.151 282.219 473.75 c 4,9,10
 379.497 473.75 379.497 473.75 426.857 412.043 c 132,-1,11
 474.219 350.336 474.219 350.336 474.219 237.75 c 4,12,13
 474.219 135.521 474.219 135.521 417.19 67.6357 c 132,-1,14
 360.162 -0.25 360.162 -0.25 266.219 -0.25 c 4,15,16
 171.157 -0.25 171.157 -0.25 110.688 61.1025 c 132,-1,17
 50.2188 122.454 50.2188 122.454 50.2188 217.75 c 6,18,-1
 50.2188 583.75 l 6,0,1
257.188 326.997 m 4,19,20
 224.483 326.997 224.483 326.997 211.352 312.256 c 132,-1,21
 198.219 297.515 198.219 297.515 198.219 263.737 c 4,22,23
 198.219 249.378 198.219 249.378 199.904 233.523 c 132,-1,24
 201.591 217.669 201.591 217.669 206.481 195.498 c 132,-1,25
 211.372 173.328 211.372 173.328 223.547 159.331 c 132,-1,26
 235.723 145.335 235.723 145.335 253.499 145.612 c 4,27,28
 296.487 145.612 296.487 145.612 311.354 168.153 c 4,29,30
 327.465 192.589 327.465 192.589 326.219 237.75 c 4,31,32
 325.064 279.569 325.064 279.569 308.922 304.316 c 4,33,34
 294.137 326.997 294.137 326.997 257.188 326.997 c 4,19,20
EndSplineSet
KernsSLIFO: 75 -46 0 0 15 -108 0 0 13 -388 0 0
EndChar
StartChar: c
Encoding: 99 99 68
Width: 463
GlyphClass: 2
Flags: W
VStem: 41.4697 150.875<180.909 288.211>
Fore
41.4697 239.75 m 0,0,1
 41.4697 344.287 41.4697 344.287 104.873 409.472 c 128,-1,2
 168.277 474.656 168.277 474.656 264.032 474.656 c 0,3,4
 328.676 474.656 328.676 474.656 376.541 450.03 c 128,-1,5
 424.406 425.404 424.406 425.404 424.406 386.406 c 0,6,7
 424.406 355.355 424.406 355.355 402.432 333.381 c 0,8,9
 378.082 309.031 378.082 309.031 349.406 311.406 c 0,10,11
 336.413 312.482 336.413 312.482 312.383 318.304 c 128,-1,12
 288.353 324.125 288.353 324.125 257.438 324.125 c 0,13,14
 227.093 324.125 227.093 324.125 209.719 300.346 c 128,-1,15
 192.345 276.566 192.345 276.566 192.345 237.75 c 0,16,17
 192.345 194.026 192.345 194.026 206.423 171.42 c 0,18,19
 219.258 150.81 219.258 150.81 257.438 148.812 c 0,20,21
 276.953 147.792 276.953 147.792 304.011 155.709 c 128,-1,22
 331.068 163.625 331.068 163.625 349.406 163.625 c 0,23,24
 380.457 163.625 380.457 163.625 402.432 141.65 c 0,25,26
 425.978 118.11 425.978 118.11 424.406 88.625 c 0,27,28
 422.757 57.667 422.757 57.667 408.621 40.627 c 128,-1,29
 394.486 23.5869 394.486 23.5869 364.22 15.0938 c 0,30,31
 313.446 -0.21875 313.446 -0.21875 245.406 -0.21875 c 0,32,33
 155.704 -0.21875 155.704 -0.21875 98.5869 66.8809 c 128,-1,34
 41.4697 133.98 41.4697 133.98 41.4697 239.75 c 0,0,1
EndSplineSet
KernsSLIFO: 75 -46 0 0 15 -82 0 0 14 -210 0 0 13 -386 0 0
EndChar
StartChar: d
Encoding: 100 100 69
Width: 515
GlyphClass: 2
Flags: W
VStem: 42 147.911<179.041 292.115> 318 148<225.103 307.648 466.438 626.924>
Fore
466 583.75 m 2,0,1
 466 618.43 466 618.43 446.465 638.934 c 128,-1,2
 426.931 659.438 426.931 659.438 393.97 659.438 c 0,3,4
 361.91 659.438 361.91 659.438 339.955 638.199 c 128,-1,5
 318 616.961 318 616.961 318 583.75 c 2,6,-1
 318 466.438 l 1,7,8
 287.146 473.151 287.146 473.151 234 473.75 c 0,9,10
 136.722 473.75 136.722 473.75 89.3613 412.043 c 128,-1,11
 42 350.336 42 350.336 42 237.75 c 0,12,13
 42 135.521 42 135.521 99.0283 67.6357 c 128,-1,14
 156.057 -0.25 156.057 -0.25 250 -0.25 c 0,15,16
 345.062 -0.25 345.062 -0.25 405.531 61.1025 c 128,-1,17
 466 122.454 466 122.454 466 217.75 c 2,18,-1
 466 583.75 l 2,0,1
259.031 326.997 m 0,19,20
 291.735 326.997 291.735 326.997 304.867 312.256 c 128,-1,21
 318 297.515 318 297.515 318 263.737 c 0,22,23
 318 249.378 318 249.378 316.314 233.523 c 128,-1,24
 314.628 217.669 314.628 217.669 309.737 195.498 c 128,-1,25
 304.847 173.328 304.847 173.328 292.672 159.331 c 128,-1,26
 280.496 145.335 280.496 145.335 262.72 145.612 c 0,27,28
 219.731 145.612 219.731 145.612 204.865 168.153 c 0,29,30
 188.754 192.589 188.754 192.589 190 237.75 c 0,31,32
 191.154 279.569 191.154 279.569 207.297 304.316 c 0,33,34
 222.082 326.997 222.082 326.997 259.031 326.997 c 0,19,20
EndSplineSet
KernsSLIFO: 75 -52 0 0 15 -112 0 0 13 -394 0 0
EndChar
StartChar: e
Encoding: 101 101 70
Width: 513
GlyphClass: 2
Flags: W
HStem: 0.556641 149.768<217.136 387.932> 165.75 148<206.266 315.39>
Fore
245.39 479.75 m 0,0,1
 353.611 478.639 353.611 478.639 408.938 417.32 c 0,2,3
 468.719 351.075 468.719 351.075 464.266 239.75 c 0,4,5
 463.048 209.305 463.048 209.305 445.08 188.62 c 0,6,7
 425.213 165.75 425.213 165.75 396.937 165.75 c 2,8,-1
 206.266 165.75 l 1,9,10
 228.7 150.76 228.7 150.76 267.248 149.237 c 128,-1,11
 305.97 147.708 305.97 147.708 339.5 150.324 c 0,12,13
 385.22 153.893 385.22 153.893 391.687 153.893 c 0,14,15
 425.174 153.893 425.174 153.893 444.72 134.033 c 128,-1,16
 464.266 114.175 464.266 114.175 464.266 83.75 c 0,17,18
 464.266 49.1768 464.266 49.1768 444.281 29.4219 c 128,-1,19
 424.297 9.66699 424.297 9.66699 394.715 5.77734 c 128,-1,20
 365.133 1.8877 365.133 1.8877 331.142 0.556641 c 0,21,22
 328.093 0.4375 328.093 0.4375 269.14 1.5 c 0,23,24
 169.135 3.30273 169.135 3.30273 106.188 64.5713 c 0,25,26
 41.3896 127.643 41.3896 127.643 41.3896 229.75 c 128,-1,27
 41.3896 331.871 41.3896 331.871 100.5 405.811 c 128,-1,28
 159.611 479.75 159.611 479.75 245.39 479.75 c 0,0,1
260.327 330.919 m 0,29,30
 221.664 330.919 221.664 330.919 200.266 313.75 c 1,31,-1
 315.39 313.75 l 1,32,-1
 309.472 318.042 l 2,33,34
 303.554 322.334 303.554 322.334 289.788 326.627 c 128,-1,35
 276.022 330.919 276.022 330.919 260.327 330.919 c 0,29,30
EndSplineSet
KernsSLIFO: 75 -52 0 0 15 -86 0 0 13 -390 0 0
EndChar
StartChar: f
Encoding: 102 102 71
Width: 433
GlyphClass: 2
Flags: W
VStem: 109.562 149.688<39.4785 311.686 461.844 495.588>
Fore
258.188 661.344 m 0,0,1
 286.276 661.353 286.276 661.353 308.138 658.492 c 128,-1,2
 329.999 655.633 329.999 655.633 352.499 647.788 c 128,-1,3
 374.998 639.943 374.998 639.943 387.421 622.814 c 128,-1,4
 399.844 605.686 399.844 605.686 399.844 580.278 c 0,5,6
 399.844 502.356 399.844 502.356 323.328 502.356 c 1,7,8
 309.778 508.093 309.778 508.093 299.54 509.823 c 128,-1,9
 289.303 511.555 289.303 511.555 279.71 508.812 c 128,-1,10
 270.118 506.071 270.118 506.071 264.981 494.245 c 128,-1,11
 259.844 482.419 259.844 482.419 259.844 461.75 c 1,12,-1
 324.781 462.219 l 2,13,14
 357.19 462.453 357.19 462.453 379.839 441.139 c 0,15,16
 400.295 421.888 400.295 421.888 399.781 387.219 c 0,17,18
 399.782 356.169 399.782 356.169 377.807 334.193 c 128,-1,19
 355.831 312.219 355.831 312.219 324.781 312.219 c 0,20,21
 311.75 312.219 311.75 312.219 293.309 311.952 c 128,-1,22
 274.867 311.686 274.867 311.686 259.25 311.686 c 1,23,-1
 259.844 67.75 l 2,24,25
 259.92 36.4561 259.92 36.4561 239.946 17.6299 c 128,-1,26
 220.048 -1.25 220.048 -1.25 185.718 -1.25 c 0,27,28
 152.522 -1.25 152.522 -1.25 131.042 19.1143 c 128,-1,29
 109.562 39.4785 109.562 39.4785 109.562 67.75 c 2,30,-1
 109.562 312.562 l 1,31,32
 78.5391 312.562 78.5391 312.562 60.2695 332.741 c 128,-1,33
 42 352.92 42 352.92 42 387.219 c 0,34,35
 42 423.293 42 423.293 59.8975 442.568 c 128,-1,36
 77.7949 461.844 77.7949 461.844 109.562 461.844 c 1,37,-1
 109.562 503.75 l 2,38,39
 109.562 569.24 109.562 569.24 151.354 617.062 c 0,40,41
 189.514 660.728 189.514 660.728 258.188 661.344 c 0,0,1
EndSplineSet
KernsSLIFO: 75 -42 0 0 15 -218 0 0 14 -118 0 0 13 -520 0 0
EndChar
StartChar: g
Encoding: 103 103 72
Width: 515
GlyphClass: 2
Flags: W
VStem: 318.312 149.968<175.961 297.803>
Fore
40.3125 237.75 m 0,0,1
 41.9326 342.271 41.9326 342.271 98.7314 408.401 c 128,-1,2
 155.53 474.531 155.53 474.531 266.688 474.531 c 0,3,4
 360.148 474.531 360.148 474.531 414.214 406.685 c 128,-1,5
 468.28 338.837 468.28 338.837 468.28 231.904 c 2,6,-1
 468.28 51.75 l 2,7,8
 468.28 -52.8955 468.28 -52.8955 408.192 -118.245 c 0,9,10
 351.15 -180.28 351.15 -180.28 247.249 -183.594 c 0,11,12
 226.396 -184.259 226.396 -184.259 204.584 -182.168 c 128,-1,13
 182.771 -180.077 182.771 -180.077 164.148 -176.505 c 128,-1,14
 145.525 -172.933 145.525 -172.933 121.873 -168.844 c 1,15,16
 104.839 -162.437 104.839 -162.437 95.376 -156.354 c 128,-1,17
 85.9141 -150.271 85.9141 -150.271 77.8545 -134.396 c 128,-1,18
 69.7959 -118.521 69.7959 -118.521 69.7959 -93.7988 c 0,19,20
 69.7959 -64.4092 69.7959 -64.4092 87.5498 -43.4385 c 128,-1,21
 105.304 -22.4678 105.304 -22.4678 135.188 -22.4678 c 0,22,23
 162.654 -22.4678 162.654 -22.4678 193.501 -29.3105 c 128,-1,24
 224.348 -36.1533 224.348 -36.1533 253.781 -36.1533 c 0,25,26
 284.866 -36.1533 284.866 -36.1533 300.073 -27.2598 c 128,-1,27
 315.281 -18.3662 315.281 -18.3662 315.281 5.1875 c 1,28,29
 269.245 -3.92773 269.245 -3.92773 251.688 0.03125 c 2,30,31
 207.735 -3.53223 207.735 -3.53223 159.843 20.7412 c 0,32,33
 118.984 41.4502 118.984 41.4502 94.0234 75.9912 c 128,-1,34
 69.0625 110.532 69.0625 110.532 55.4521 151.809 c 0,35,36
 39.7197 199.494 39.7197 199.494 40.3125 237.75 c 0,0,1
260.312 326.919 m 0,37,38
 238.199 326.919 238.199 326.919 223.917 319.708 c 128,-1,39
 209.634 312.497 209.634 312.497 203.102 297.926 c 128,-1,40
 196.569 283.355 196.569 283.355 194.425 268.598 c 128,-1,41
 192.281 253.841 192.281 253.841 192.281 231.75 c 0,42,43
 192.281 188.898 192.281 188.898 209.667 167.708 c 128,-1,44
 227.054 146.518 227.054 146.518 257.405 146.518 c 0,45,46
 288.25 146.518 288.25 146.518 304.792 168.902 c 0,47,48
 319.83 189.264 319.83 189.264 318.312 233.607 c 0,49,50
 316.623 282.988 316.623 282.988 305.933 304.176 c 0,51,52
 294.454 326.919 294.454 326.919 260.312 326.919 c 0,37,38
EndSplineSet
KernsSLIFO: 75 62 0 0 15 -88 0 0 13 -392 0 0
EndChar
StartChar: h
Encoding: 104 104 73
Width: 521
GlyphClass: 2
Flags: W
VStem: 52 149.031<44.0176 297.808 462.969 625.512> 328 149.031<45.2715 286.61>
Fore
52 583.405 m 2,0,1
 52 615.795 52 615.795 72.375 638.772 c 128,-1,2
 92.75 661.75 92.75 661.75 124.688 661.75 c 0,3,4
 158.781 661.75 158.781 661.75 179.135 642.045 c 0,5,6
 201.031 622.339 201.031 622.339 201.031 586.27 c 2,7,-1
 201.031 462.969 l 1,8,9
 204.262 463.646 204.262 463.646 225.102 469.695 c 128,-1,10
 245.941 475.746 245.941 475.746 257.031 475.75 c 0,11,12
 349.98 475.75 349.98 475.75 413.506 420.934 c 128,-1,13
 477.031 366.118 477.031 366.118 477.031 285.75 c 2,14,-1
 477.031 75.2949 l 2,15,16
 477.031 45.2715 477.031 45.2715 454.672 23.1777 c 128,-1,17
 432.312 1.08398 432.312 1.08398 402.545 1.08398 c 0,18,19
 371.393 0.816406 371.393 0.816406 349.697 21.9971 c 128,-1,20
 328 43.1787 328 43.1787 328 74.4805 c 2,21,-1
 328 261.75 l 2,22,23
 328 286.61 328 286.61 309.295 306.41 c 128,-1,24
 290.588 326.21 290.588 326.21 264.25 326.21 c 0,25,26
 239.834 326.21 239.834 326.21 220.432 308.031 c 128,-1,27
 201.031 289.854 201.031 289.854 201.031 263.339 c 2,28,-1
 201.031 74.8496 l 2,29,30
 201.031 44.0176 201.031 44.0176 180.506 22.8838 c 128,-1,31
 159.98 1.75 159.98 1.75 125.799 1.75 c 0,32,33
 93.1973 1.75 93.1973 1.75 72.5996 21.9717 c 128,-1,34
 52 42.1934 52 42.1934 52 72.8955 c 2,35,-1
 52 583.405 l 2,0,1
EndSplineSet
KernsSLIFO: 75 -50 0 0 15 -84 0 0 13 -388 0 0
EndChar
StartChar: i
Encoding: 105 105 74
Width: 247
GlyphClass: 2
Flags: W
VStem: 52 149.031<42.0176 439.512 552.759 633.679>
Fore
52 397.405 m 2,0,1
 52 429.795 52 429.795 72.375 452.772 c 128,-1,2
 92.75 475.75 92.75 475.75 124.688 475.75 c 0,3,4
 158.914 475.75 158.914 475.75 179.973 455.498 c 128,-1,5
 201.031 435.247 201.031 435.247 201.031 400.27 c 2,6,-1
 201.031 72.8496 l 2,7,8
 201.031 42.0176 201.031 42.0176 180.506 20.8838 c 128,-1,9
 159.98 -0.25 159.98 -0.25 125.799 -0.25 c 0,10,11
 93.1973 -0.25 93.1973 -0.25 72.5996 19.9717 c 128,-1,12
 52 40.1934 52 40.1934 52 70.8955 c 2,13,-1
 52 397.405 l 2,0,1
201.527 593.125 m 128,-1,15
 201.527 562.074 201.527 562.074 179.553 540.1 c 128,-1,16
 157.578 518.125 157.578 518.125 126.527 518.125 c 128,-1,17
 95.4766 518.125 95.4766 518.125 73.502 540.1 c 128,-1,18
 51.5273 562.074 51.5273 562.074 51.5273 593.125 c 128,-1,19
 51.5273 624.32 51.5273 624.32 73.502 646.295 c 128,-1,20
 95.4766 668.27 95.4766 668.27 126.527 668.27 c 128,-1,21
 157.578 668.27 157.578 668.27 179.553 646.295 c 128,-1,14
 201.527 624.32 201.527 624.32 201.527 593.125 c 128,-1,15
EndSplineSet
KernsSLIFO: 75 -52 0 0 15 -88 0 0 13 -392 0 0
EndChar
StartChar: j
Encoding: 106 106 75
Width: 313
GlyphClass: 2
Flags: W
VStem: 105.572 150.281<31.3824 439.68 548.379 629.299>
Fore
107.229 -182.187 m 0,0,1
 79.1387 -182.195 79.1387 -182.195 57.2773 -179.335 c 128,-1,2
 35.416 -176.476 35.416 -176.476 12.918 -168.632 c 128,-1,3
 -9.58008 -160.787 -9.58008 -160.787 -22.0039 -143.658 c 128,-1,4
 -34.4277 -126.528 -34.4277 -126.528 -34.4277 -101.122 c 0,5,6
 -34.4277 -23.1992 -34.4277 -23.1992 42.0879 -23.1992 c 1,7,8
 56.5293 -26.4053 56.5293 -26.4053 67.2305 -27.4316 c 128,-1,9
 77.9316 -28.458 77.9316 -28.458 85.2656 -21.2812 c 128,-1,10
 92.5996 -14.1035 92.5996 -14.1035 97.3008 -6.7832 c 128,-1,11
 102.002 0.537109 102.002 0.537109 104.443 14.0244 c 128,-1,12
 106.885 27.5117 106.885 27.5117 107.805 39.1045 c 128,-1,13
 108.725 50.6973 108.725 50.6973 108.49 66.4189 c 128,-1,14
 108.256 82.1416 108.256 82.1416 107.607 93.9326 c 128,-1,15
 106.959 105.725 106.959 105.725 106.266 119.608 c 128,-1,16
 105.572 133.492 105.572 133.492 105.572 141.407 c 2,17,-1
 105.572 411.407 l 2,18,19
 105.572 442.646 105.572 442.646 125.471 461.526 c 128,-1,20
 145.369 480.407 145.369 480.407 179.697 480.407 c 0,21,22
 212.893 480.407 212.893 480.407 234.373 460.043 c 128,-1,23
 255.854 439.68 255.854 439.68 255.854 411.407 c 2,24,-1
 255.854 -24.5928 l 2,25,26
 255.854 -90.084 255.854 -90.084 214.061 -137.904 c 0,27,28
 175.9 -181.57 175.9 -181.57 107.229 -182.187 c 0,0,1
257.916 588.745 m 128,-1,30
 257.916 557.694 257.916 557.694 235.941 535.72 c 128,-1,31
 213.967 513.745 213.967 513.745 182.916 513.745 c 128,-1,32
 151.865 513.745 151.865 513.745 129.891 535.72 c 128,-1,33
 107.916 557.694 107.916 557.694 107.916 588.745 c 128,-1,34
 107.916 619.94 107.916 619.94 129.891 641.916 c 128,-1,35
 151.865 663.891 151.865 663.891 182.916 663.891 c 128,-1,36
 213.967 663.891 213.967 663.891 235.941 641.916 c 128,-1,29
 257.916 619.94 257.916 619.94 257.916 588.745 c 128,-1,30
EndSplineSet
KernsSLIFO: 75 64 0 0 28 -40 0 0 15 -100 0 0 13 -404 0 0
EndChar
StartChar: k
Encoding: 107 107 76
Width: 479
GlyphClass: 2
Flags: W
VStem: 38 149.033<44.0137 167.906 365.438 625.513>
Fore
110.689 661.75 m 0,0,1
 144.785 661.75 144.785 661.75 165.137 642.051 c 0,2,3
 187.033 622.351 187.033 622.351 187.033 586.281 c 2,4,-1
 187.033 365.438 l 1,5,-1
 328.314 486.438 l 1,6,-1
 328.658 486.031 l 1,7,8
 348.861 501.594 348.861 501.594 374.377 501.594 c 0,9,10
 405.428 501.594 405.428 501.594 427.402 479.619 c 128,-1,11
 449.377 457.645 449.377 457.645 449.377 426.594 c 0,12,13
 449.377 405.555 449.377 405.555 438.621 387.915 c 128,-1,14
 427.865 370.276 427.865 370.276 409.971 360.594 c 1,15,-1
 318.939 281.906 l 1,16,-1
 454.377 115.125 l 2,17,18
 467.877 98.501 467.877 98.501 467.877 71.5 c 0,19,20
 467.875 40.4482 467.875 40.4482 445.902 18.4746 c 128,-1,21
 423.928 -3.5 423.928 -3.5 392.877 -3.5 c 0,22,23
 357.84 -3.5 357.84 -3.5 335.314 23.4688 c 1,24,-1
 204.846 183.281 l 1,25,-1
 187.033 167.906 l 1,26,-1
 187.033 74.8438 l 2,27,28
 187.033 44.0137 187.033 44.0137 166.5 22.8818 c 128,-1,29
 145.967 1.75 145.967 1.75 111.783 1.75 c 0,30,31
 79.1836 1.75 79.1836 1.75 58.5938 21.9746 c 128,-1,32
 38 42.2002 38 42.2002 38 72.9062 c 2,33,-1
 38 583.406 l 2,34,35
 38 615.796 38 615.796 58.375 638.773 c 128,-1,36
 78.75 661.75 78.75 661.75 110.689 661.75 c 0,0,1
EndSplineSet
KernsSLIFO: 15 -74 0 0 14 -72 0 0 13 -378 0 0
EndChar
StartChar: l
Encoding: 108 108 77
Width: 245
GlyphClass: 2
Flags: W
VStem: 53.5 149.031<44.0176 625.512>
Fore
53.5 583.405 m 2,0,1
 53.5 615.795 53.5 615.795 73.875 638.772 c 128,-1,2
 94.25 661.75 94.25 661.75 126.188 661.75 c 0,3,4
 160.281 661.75 160.281 661.75 180.635 642.045 c 0,5,6
 202.531 622.34 202.531 622.34 202.531 586.27 c 2,7,-1
 202.531 74.8496 l 2,8,9
 202.531 44.0176 202.531 44.0176 182.006 22.8838 c 128,-1,10
 161.48 1.75 161.48 1.75 127.297 1.75 c 0,11,12
 94.6953 1.75 94.6953 1.75 74.0977 21.9707 c 128,-1,13
 53.5 42.1914 53.5 42.1914 53.5 72.8955 c 2,14,-1
 53.5 583.405 l 2,0,1
EndSplineSet
KernsSLIFO: 75 -52 0 0 15 -88 0 0 13 -392 0 0
EndChar
StartChar: m
Encoding: 109 109 78
Width: 671
GlyphClass: 2
Flags: W
VStem: 37 148.938<42.54 313.788> 267 148.938<192.07 313.524> 497 148.938<47.5664 313.75>
CounterMasks: 1 00
Fore
37 313.75 m 6,0,1
 37 383.607 37 383.607 91.5879 431.132 c 132,-1,2
 146.178 478.656 146.178 478.656 226.344 478.656 c 4,3,4
 297.912 478.656 297.912 478.656 342.438 439.16 c 5,5,6
 393.086 480.625 393.086 480.625 457.031 480.625 c 4,7,8
 539.094 480.625 539.094 480.625 592.516 434.076 c 132,-1,9
 645.938 387.528 645.938 387.528 645.938 313.75 c 6,10,-1
 645.938 75.75 l 6,11,12
 645.938 47.5664 645.938 47.5664 623.396 24.7627 c 4,13,14
 603.676 4.8125 603.676 4.8125 571.656 4.8125 c 4,15,16
 538.623 4.8125 538.623 4.8125 518.535 23.3398 c 4,17,18
 497 41.8662 497 41.8662 497 71.75 c 6,19,-1
 497 291.75 l 6,20,21
 497 309.166 497 309.166 485.951 319.893 c 132,-1,22
 474.902 330.619 474.902 330.619 457.344 330.619 c 4,23,24
 439.025 330.619 439.025 330.619 427.482 320.96 c 132,-1,25
 415.938 311.3 415.938 311.3 415.938 291.75 c 6,26,-1
 415.938 218.75 l 6,27,28
 415.938 192.07 415.938 192.07 391.885 169.71 c 4,29,30
 370.479 149.812 370.479 149.812 341.656 149.812 c 4,31,32
 310.42 149.812 310.42 149.812 289.291 169.572 c 4,33,34
 267 189.332 267 189.332 267 218.75 c 6,35,-1
 267 291.75 l 6,36,37
 267 308.499 267 308.499 256.252 319.497 c 132,-1,38
 245.506 330.494 245.506 330.494 227.844 330.494 c 4,39,40
 208.24 330.494 208.24 330.494 197.088 319.599 c 132,-1,41
 185.938 308.702 185.938 308.702 185.938 291.75 c 6,42,-1
 185.938 71.75 l 6,43,44
 185.938 42.54 185.938 42.54 163.91 22.1885 c 4,45,46
 142.939 2.8125 142.939 2.8125 111.656 2.8125 c 4,47,48
 81.0234 2.8125 81.0234 2.8125 59.7246 22.5547 c 4,49,50
 37 42.2979 37 42.2979 37 71.75 c 6,51,-1
 37 313.75 l 6,0,1
EndSplineSet
KernsSLIFO: 75 -52 0 0 15 -86 0 0 13 -390 0 0
EndChar
StartChar: n
Encoding: 110 110 79
Width: 509
GlyphClass: 2
Flags: W
VStem: 49 149.031<44.0176 297.808> 325 149.031<45.2715 286.61>
Fore
49 279.006 m 6,0,1
 49 360.884 49 360.884 108.42 418.316 c 132,-1,2
 167.842 475.75 167.842 475.75 254.031 475.75 c 4,3,4
 348.885 475.75 348.885 475.75 411.459 419.841 c 132,-1,5
 474.031 363.932 474.031 363.932 474.031 285.75 c 6,6,-1
 474.031 75.2949 l 6,7,8
 474.031 45.2715 474.031 45.2715 451.672 23.1777 c 132,-1,9
 429.312 1.08398 429.312 1.08398 399.545 1.08398 c 4,10,11
 368.393 0.816406 368.393 0.816406 346.697 21.9971 c 132,-1,12
 325 43.1787 325 43.1787 325 74.4805 c 6,13,-1
 325 261.75 l 6,14,15
 325 286.61 325 286.61 306.295 306.41 c 132,-1,16
 287.588 326.21 287.588 326.21 261.25 326.21 c 4,17,18
 236.834 326.21 236.834 326.21 217.432 308.031 c 132,-1,19
 198.031 289.854 198.031 289.854 198.031 263.339 c 6,20,-1
 198.031 74.8496 l 6,21,22
 198.031 44.0176 198.031 44.0176 177.506 22.8838 c 132,-1,23
 156.98 1.75 156.98 1.75 122.799 1.75 c 4,24,25
 90.1953 1.75 90.1953 1.75 69.5977 21.9707 c 132,-1,26
 49 42.1914 49 42.1914 49 72.8955 c 6,27,-1
 49 279.006 l 6,0,1
EndSplineSet
KernsSLIFO: 75 -50 0 0 15 -84 0 0 13 -388 0 0
EndChar
StartChar: o
Encoding: 111 111 80
Width: 525
GlyphClass: 2
Flags: W
VStem: 45 148.188<185.129 284.177> 341 148.188<180.116 287.216>
Fore
45 237.75 m 0,0,1
 45 352.896 45 352.896 97.1016 412.776 c 128,-1,2
 149.201 472.656 149.201 472.656 266.031 472.656 c 0,3,4
 376.537 472.656 376.537 472.656 432.863 408.366 c 128,-1,5
 489.188 344.076 489.188 344.076 489.188 237.75 c 0,6,7
 489.188 121.529 489.188 121.529 431.51 61.1553 c 0,8,9
 374.934 1.93359 374.934 1.93359 264.938 0.78125 c 0,10,11
 158.844 -0.330078 158.844 -0.330078 102.426 63.0107 c 0,12,13
 45 127.483 45 127.483 45 237.75 c 0,0,1
267.562 326.35 m 128,-1,15
 233.164 326.35 233.164 326.35 212.748 298.983 c 128,-1,16
 192.332 271.617 192.332 271.617 193.188 229.75 c 0,17,18
 193.188 195.426 193.188 195.426 212.652 172.891 c 128,-1,19
 232.119 150.355 232.119 150.355 265.219 150.355 c 0,20,21
 299.822 150.355 299.822 150.355 320.41 171.886 c 128,-1,22
 341 193.416 341 193.416 341 237.75 c 0,23,24
 341 275.801 341 275.801 321.514 301.075 c 128,-1,14
 302.027 326.35 302.027 326.35 267.562 326.35 c 128,-1,15
EndSplineSet
KernsSLIFO: 75 -46 0 0 15 -106 0 0 13 -388 0 0
EndChar
StartChar: p
Encoding: 112 112 81
Width: 511
GlyphClass: 2
Flags: W
VStem: 49 148<-150.366 7.05469 165.844 248.389> 325 148<181.377 294.504>
Fore
49 -110.258 m 6,0,-1
 49 255.742 l 6,1,2
 49 351.037 49 351.037 109.471 412.39 c 132,-1,3
 169.939 473.742 169.939 473.742 265 473.742 c 4,4,5
 358.945 473.742 358.945 473.742 415.973 405.857 c 132,-1,6
 473 337.972 473 337.972 473 235.742 c 4,7,8
 473 123.155 473 123.155 425.639 61.4482 c 4,9,10
 377.445 -1.34375 377.445 -1.34375 281 -0.257812 c 4,11,12
 227.855 0.34082 227.855 0.34082 197 7.05469 c 5,13,-1
 197 -110.258 l 6,14,15
 197 -141.11 197 -141.11 175.045 -164.706 c 4,16,17
 155.285 -185.945 155.285 -185.945 121.031 -185.945 c 4,18,19
 88.0703 -185.945 88.0703 -185.945 68.5352 -165.441 c 132,-1,20
 49 -144.938 49 -144.938 49 -110.258 c 6,0,-1
255.971 146.495 m 4,21,22
 292.92 146.495 292.92 146.495 307.705 169.176 c 4,23,24
 323.846 193.923 323.846 193.923 325 235.742 c 4,25,26
 326.248 280.943 326.248 280.943 310.135 305.341 c 4,27,28
 295.271 327.881 295.271 327.881 252.281 327.881 c 4,29,30
 234.506 328.158 234.506 328.158 222.33 314.162 c 132,-1,31
 210.154 300.165 210.154 300.165 205.264 277.994 c 132,-1,32
 200.371 255.822 200.371 255.822 198.686 239.969 c 132,-1,33
 197 224.115 197 224.115 197 209.755 c 4,34,35
 197 175.978 197 175.978 210.133 161.236 c 132,-1,36
 223.266 146.495 223.266 146.495 255.971 146.495 c 4,21,22
EndSplineSet
KernsSLIFO: 75 -46 0 0 15 -108 0 0 13 -388 0 0
EndChar
StartChar: q
Encoding: 113 113 82
Width: 535
GlyphClass: 2
Flags: W
VStem: 42 147.91<181.377 294.504> 318 148<-150.366 7.05469 165.844 248.389>
Fore
466 -110.258 m 2,0,-1
 466 255.742 l 2,1,2
 466 351.037 466 351.037 405.529 412.39 c 128,-1,3
 345.061 473.742 345.061 473.742 250 473.742 c 0,4,5
 156.055 473.742 156.055 473.742 99.0273 405.857 c 128,-1,6
 42 337.972 42 337.972 42 235.742 c 0,7,8
 42 123.155 42 123.155 89.3613 61.4482 c 0,9,10
 137.555 -1.34375 137.555 -1.34375 234 -0.257812 c 0,11,12
 287.145 0.34082 287.145 0.34082 318 7.05469 c 1,13,-1
 318 -110.258 l 2,14,15
 318 -141.11 318 -141.11 339.955 -164.706 c 0,16,17
 359.715 -185.945 359.715 -185.945 393.969 -185.945 c 0,18,19
 426.93 -185.945 426.93 -185.945 446.465 -165.441 c 128,-1,20
 466 -144.938 466 -144.938 466 -110.258 c 2,0,-1
259.029 146.495 m 0,21,22
 222.08 146.495 222.08 146.495 207.295 169.176 c 0,23,24
 191.154 193.923 191.154 193.923 190 235.742 c 0,25,26
 188.752 280.943 188.752 280.943 204.865 305.341 c 0,27,28
 219.729 327.881 219.729 327.881 262.719 327.881 c 0,29,30
 280.494 328.158 280.494 328.158 292.67 314.162 c 128,-1,31
 304.846 300.165 304.846 300.165 309.736 277.994 c 128,-1,32
 314.629 255.822 314.629 255.822 316.314 239.969 c 128,-1,33
 318 224.115 318 224.115 318 209.755 c 0,34,35
 318 175.978 318 175.978 304.867 161.236 c 128,-1,36
 291.734 146.495 291.734 146.495 259.029 146.495 c 0,21,22
EndSplineSet
KernsSLIFO: 75 66 0 0 28 -50 0 0 27 -40 0 0 15 -108 0 0 13 -412 0 0
EndChar
StartChar: r
Encoding: 114 114 83
Width: 493
GlyphClass: 2
Flags: W
VStem: 49 150.406<42.4248 302.076>
Fore
49 283.75 m 2,0,1
 49 361.325 49 361.325 109.988 417.959 c 128,-1,2
 170.979 474.594 170.979 474.594 266.312 474.594 c 0,3,4
 349.072 474.594 349.072 474.594 404.238 438.021 c 128,-1,5
 459.406 401.446 459.406 401.446 459.406 354.875 c 0,6,7
 459.406 274.625 459.406 274.625 385.594 274.625 c 0,8,9
 369.898 274.625 369.898 274.625 359.633 280.157 c 128,-1,10
 349.369 285.689 349.369 285.689 343.105 293.586 c 128,-1,11
 336.84 301.481 336.84 301.481 329.471 309.377 c 128,-1,12
 322.102 317.273 322.102 317.273 307.051 322.806 c 128,-1,13
 291.998 328.338 291.998 328.338 269.309 328.338 c 0,14,15
 237.326 328.338 237.326 328.338 218.367 311.246 c 128,-1,16
 199.406 294.154 199.406 294.154 199.406 267.75 c 2,17,-1
 199.406 73.75 l 2,18,19
 199.406 42.4248 199.406 42.4248 178.977 20.79 c 128,-1,20
 158.549 -0.845703 158.549 -0.845703 126.031 -0.845703 c 0,21,22
 94.6777 -0.916016 94.6777 -0.916016 71.8398 20.4512 c 128,-1,23
 49 41.8184 49 41.8184 49 73.75 c 2,24,-1
 49 283.75 l 2,0,1
EndSplineSet
KernsSLIFO: 75 -42 0 0 15 -338 0 0 13 -640 0 0
EndChar
StartChar: s
Encoding: 115 115 84
Width: 457
GlyphClass: 2
Flags: W
HStem: 1.71875 147.512<157.69 276.271> 327.809 149.441<172.507 277.074>
Fore
17.5 325.75 m 0,0,1
 17.5 404.348 17.5 404.348 71.498 440.799 c 0,2,3
 123.951 476.207 123.951 476.207 212.031 477.25 c 0,4,5
 248.834 477.686 248.834 477.686 272.725 474.57 c 0,6,7
 303.818 470.515 303.818 470.515 332.705 461.101 c 128,-1,8
 361.594 451.687 361.594 451.687 379.984 433.461 c 0,9,10
 399.82 413.809 399.82 413.809 398.375 391.156 c 0,11,12
 395.549 346.851 395.549 346.851 378.414 331.628 c 128,-1,13
 361.279 316.406 361.279 316.406 323.375 316.406 c 0,14,15
 300.77 316.406 300.77 316.406 277.514 322.107 c 128,-1,16
 254.258 327.809 254.258 327.809 217.75 327.809 c 0,17,18
 202.992 327.822 202.992 327.822 193.043 327.834 c 128,-1,19
 183.094 327.847 183.094 327.847 177.057 327.285 c 128,-1,20
 171.02 326.723 171.02 326.723 168.447 325.219 c 128,-1,21
 165.875 323.716 165.875 323.716 165.875 320.697 c 0,22,23
 165.875 315.047 165.875 315.047 173.443 314.284 c 128,-1,24
 181.01 313.521 181.01 313.521 218.807 313.521 c 0,25,26
 322.609 313.521 322.609 313.521 374.242 273.975 c 128,-1,27
 425.875 234.427 425.875 234.427 425.875 147.75 c 0,28,29
 425.875 67.3896 425.875 67.3896 371.414 34.5537 c 128,-1,30
 316.953 1.71875 316.953 1.71875 206.031 1.71875 c 0,31,32
 173.092 1.71875 173.092 1.71875 143.207 5.86719 c 128,-1,33
 113.322 10.0156 113.322 10.0156 82.959 19.9775 c 128,-1,34
 52.5977 29.9395 52.5977 29.9395 34.4707 50.5811 c 128,-1,35
 16.3438 71.2227 16.3438 71.2227 16.3438 100.312 c 0,36,37
 16.3438 132.376 16.3438 132.376 38.5352 150.737 c 0,38,39
 62.5332 170.594 62.5332 170.594 91.1875 170.594 c 0,40,41
 110.414 170.594 110.414 170.594 141.188 159.912 c 128,-1,42
 171.961 149.23 171.961 149.23 219.529 149.23 c 0,43,44
 237.984 149.254 237.984 149.254 250.867 149.11 c 128,-1,45
 263.75 148.967 263.75 148.967 270.625 150.439 c 128,-1,46
 277.5 151.911 277.5 151.911 277.5 155.75 c 0,47,48
 277.5 159.011 277.5 159.011 273.393 160.796 c 128,-1,49
 269.285 162.581 269.285 162.581 261.588 163.121 c 0,50,51
 247.184 164.134 247.184 164.134 242.855 163.759 c 0,52,53
 231.789 162.801 231.789 162.801 217.973 163.742 c 0,54,55
 182.285 166.175 182.285 166.175 157.041 170.211 c 128,-1,56
 131.799 174.247 131.799 174.247 103.494 184.897 c 128,-1,57
 75.1895 195.549 75.1895 195.549 57.8672 212.189 c 128,-1,58
 40.5449 228.83 40.5449 228.83 29.0215 257.678 c 128,-1,59
 17.5 286.525 17.5 286.525 17.5 325.75 c 0,0,1
EndSplineSet
KernsSLIFO: 75 -48 0 0 15 -88 0 0 13 -386 0 0
EndChar
StartChar: t
Encoding: 116 116 85
Width: 389
GlyphClass: 2
Flags: W
VStem: 95.7812 150.281<212.452 322.383 472.541 629.229>
Fore
244.406 -1.11719 m 0,0,1
 179.395 -0.53418 179.395 -0.53418 137.572 43.165 c 128,-1,2
 95.7812 86.8311 95.7812 86.8311 95.7812 156.477 c 2,3,-1
 95.7812 322.383 l 1,4,5
 57.5508 322.383 57.5508 322.383 33.8848 343.633 c 128,-1,6
 10.2188 364.882 10.2188 364.882 10.2188 397.008 c 0,7,8
 10.2188 430.645 10.2188 430.645 34.5996 451.154 c 128,-1,9
 58.9805 471.664 58.9805 471.664 95.7812 471.664 c 1,10,-1
 95.7812 592.477 l 2,11,12
 95.7812 620.748 95.7812 620.748 117.262 641.112 c 128,-1,13
 138.742 661.477 138.742 661.477 171.936 661.477 c 0,14,15
 206.266 661.477 206.266 661.477 226.164 642.596 c 128,-1,16
 246.217 623.645 246.217 623.645 246.062 592.477 c 2,17,-1
 245.469 472.541 l 1,18,19
 261.086 472.541 261.086 472.541 270.527 472.274 c 128,-1,20
 279.969 472.008 279.969 472.008 293 472.008 c 0,21,22
 324.051 472.008 324.051 472.008 346.025 450.033 c 128,-1,23
 368 428.059 368 428.059 368 397.008 c 0,24,25
 368.512 362.339 368.512 362.339 348.057 343.089 c 0,26,27
 325.314 321.686 325.314 321.686 293 322.008 c 2,28,-1
 246.062 322.477 l 1,29,30
 246.062 314.56 246.062 314.56 245.369 300.678 c 128,-1,31
 244.676 286.795 244.676 286.795 244.027 275.002 c 128,-1,32
 243.379 263.21 243.379 263.21 243.145 247.488 c 128,-1,33
 242.91 231.768 242.91 231.768 243.83 220.174 c 128,-1,34
 244.75 208.579 244.75 208.579 247.189 195.094 c 128,-1,35
 249.629 181.608 249.629 181.608 254.334 174.286 c 128,-1,36
 259.039 166.965 259.039 166.965 266.369 159.789 c 128,-1,37
 273.699 152.612 273.699 152.612 284.404 153.638 c 128,-1,38
 295.109 154.662 295.109 154.662 309.547 157.87 c 1,39,40
 386.062 157.87 386.062 157.87 386.062 79.9482 c 0,41,42
 386.062 54.542 386.062 54.542 373.639 37.4121 c 128,-1,43
 361.215 20.2822 361.215 20.2822 338.717 12.4385 c 128,-1,44
 316.219 4.59375 316.219 4.59375 294.357 1.73438 c 128,-1,45
 272.496 -1.12598 272.496 -1.12598 244.406 -1.11719 c 0,0,1
EndSplineSet
KernsSLIFO: 75 -40 0 0 15 -76 0 0 14 -116 0 0 13 -380 0 0
EndChar
StartChar: u
Encoding: 117 117 86
Width: 519
GlyphClass: 2
Flags: W
VStem: 48.9688 149.031<188.87 430.209> 324.969 149.031<177.673 431.463>
Fore
474 196.475 m 2,0,1
 474 114.597 474 114.597 414.58 57.1641 c 128,-1,2
 355.158 -0.269531 355.158 -0.269531 268.969 -0.269531 c 0,3,4
 174.115 -0.269531 174.115 -0.269531 111.541 55.6396 c 128,-1,5
 48.9688 111.549 48.9688 111.549 48.9688 189.73 c 2,6,-1
 48.9688 400.186 l 2,7,8
 48.9688 430.209 48.9688 430.209 71.3281 452.303 c 128,-1,9
 93.6875 474.396 93.6875 474.396 123.455 474.396 c 0,10,11
 154.607 474.664 154.607 474.664 176.303 453.483 c 128,-1,12
 198 432.302 198 432.302 198 401 c 2,13,-1
 198 213.73 l 2,14,15
 198 188.87 198 188.87 216.705 169.07 c 128,-1,16
 235.412 149.271 235.412 149.271 261.75 149.271 c 0,17,18
 286.166 149.271 286.166 149.271 305.568 167.449 c 128,-1,19
 324.969 185.627 324.969 185.627 324.969 212.142 c 2,20,-1
 324.969 400.631 l 2,21,22
 324.969 431.463 324.969 431.463 345.494 452.597 c 128,-1,23
 366.02 473.73 366.02 473.73 400.201 473.73 c 0,24,25
 432.805 473.73 432.805 473.73 453.402 453.51 c 128,-1,26
 474 433.289 474 433.289 474 402.585 c 2,27,-1
 474 196.475 l 2,0,1
EndSplineSet
KernsSLIFO: 75 -50 0 0 15 -108 0 0 13 -392 0 0
EndChar
StartChar: v
Encoding: 118 118 87
Width: 499
GlyphClass: 2
Flags: W
HStem: 0.611328 485.986<90.0605 233.432>
VStem: 15.8242 450.406<398.939 450.317 412.495 419.646>
Fore
390.123 486.576 m 0,0,1
 419.322 486.576 419.322 486.576 442.775 464.971 c 0,2,3
 468.16 441.589 468.16 441.589 466.23 412.495 c 0,4,5
 465.539 402.067 465.539 402.067 462.895 389.287 c 0,6,7
 453.525 351.845 453.525 351.845 446.672 326.186 c 128,-1,8
 439.818 300.526 439.818 300.526 426.08 256.306 c 128,-1,9
 412.342 212.085 412.342 212.085 399.775 181.134 c 128,-1,10
 387.209 150.184 387.209 150.184 368.23 113.534 c 128,-1,11
 349.252 76.8848 349.252 76.8848 329.979 54.2344 c 128,-1,12
 310.705 31.584 310.705 31.584 285.494 16.0977 c 128,-1,13
 260.283 0.611328 260.283 0.611328 233.432 0.611328 c 0,14,15
 213.188 0.611328 213.188 0.611328 194.162 9.98145 c 128,-1,16
 175.139 19.3516 175.139 19.3516 159.857 33.1572 c 128,-1,17
 144.576 46.9619 144.576 46.9619 129.393 71.4014 c 128,-1,18
 114.211 95.8408 114.211 95.8408 103.283 117.014 c 128,-1,19
 92.3535 138.187 92.3535 138.187 80.2988 171.854 c 128,-1,20
 68.2422 205.522 68.2422 205.522 60.9473 228.223 c 128,-1,21
 53.6504 250.922 53.6504 250.922 44 287.979 c 0,22,23
 30.7656 338.8 30.7656 338.8 29.9746 343.423 c 0,24,25
 26.7773 362.104 26.7773 362.104 17.7422 395.817 c 0,26,27
 15.8242 402.975 15.8242 402.975 15.8242 419.646 c 0,28,29
 15.8242 445.351 15.8242 445.351 38.1348 465.975 c 0,30,31
 61.5898 487.658 61.5898 487.658 90.0605 486.598 c 0,32,33
 117.688 485.568 117.688 485.568 137.018 470.736 c 128,-1,34
 156.346 455.904 156.346 455.904 162.285 431.234 c 0,35,36
 206.658 239.61 206.658 239.61 237.523 162.843 c 1,37,38
 262.045 221.826 262.045 221.826 318.047 430.028 c 0,39,40
 325.174 456.524 325.174 456.524 346.303 472.09 c 0,41,42
 365.969 486.576 365.969 486.576 390.123 486.576 c 0,0,1
EndSplineSet
KernsSLIFO: 15 -192 0 0 13 -452 0 0
EndChar
StartChar: w
Encoding: 119 119 88
Width: 669
GlyphClass: 2
Flags: W
VStem: 34.0625 148.938<165.25 431.434> 264.062 148.938<165.476 286.93> 494.062 148.938<165.212 436.46>
CounterMasks: 1 00
Fore
643 165.25 m 2,0,1
 643 95.3926 643 95.3926 588.412 47.8682 c 128,-1,2
 533.822 0.34375 533.822 0.34375 453.656 0.34375 c 0,3,4
 382.088 0.34375 382.088 0.34375 337.562 39.8398 c 1,5,6
 286.914 -1.625 286.914 -1.625 222.969 -1.625 c 0,7,8
 140.906 -1.625 140.906 -1.625 87.4844 44.9238 c 128,-1,9
 34.0625 91.4717 34.0625 91.4717 34.0625 165.25 c 2,10,-1
 34.0625 403.25 l 2,11,12
 34.0625 431.434 34.0625 431.434 56.6035 454.237 c 0,13,14
 76.3242 474.188 76.3242 474.188 108.344 474.188 c 0,15,16
 141.377 474.188 141.377 474.188 161.465 455.66 c 0,17,18
 183 437.134 183 437.134 183 407.25 c 2,19,-1
 183 187.25 l 2,20,21
 183 169.834 183 169.834 194.049 159.107 c 128,-1,22
 205.098 148.381 205.098 148.381 222.656 148.381 c 0,23,24
 240.975 148.381 240.975 148.381 252.518 158.04 c 128,-1,25
 264.062 167.7 264.062 167.7 264.062 187.25 c 2,26,-1
 264.062 260.25 l 2,27,28
 264.062 286.93 264.062 286.93 288.115 309.29 c 0,29,30
 309.521 329.188 309.521 329.188 338.344 329.188 c 0,31,32
 369.58 329.188 369.58 329.188 390.709 309.428 c 0,33,34
 413 289.668 413 289.668 413 260.25 c 2,35,-1
 413 187.25 l 2,36,37
 413 170.501 413 170.501 423.748 159.503 c 128,-1,38
 434.494 148.506 434.494 148.506 452.156 148.506 c 0,39,40
 471.76 148.506 471.76 148.506 482.912 159.401 c 128,-1,41
 494.062 170.298 494.062 170.298 494.062 187.25 c 2,42,-1
 494.062 407.25 l 2,43,44
 494.062 436.46 494.062 436.46 516.09 456.812 c 0,45,46
 537.061 476.188 537.061 476.188 568.344 476.188 c 0,47,48
 598.977 476.188 598.977 476.188 620.275 456.445 c 0,49,50
 643 436.702 643 436.702 643 407.25 c 2,51,-1
 643 165.25 l 2,0,1
EndSplineSet
KernsSLIFO: 75 -52 0 0 15 -100 0 0 13 -392 0 0
EndChar
StartChar: x
Encoding: 120 120 89
Width: 539
GlyphClass: 2
Flags: W
HStem: -3.9375 478.781<56.302 117.022 88.668 96.668>
VStem: 13.668 443.562<31.6952 102.3 71.0625 72.0625>
Fore
96.668 474.844 m 0,0,1
 124.451 474.844 124.451 474.844 145.512 456.75 c 1,2,-1
 145.668 456.906 l 1,3,-1
 146.699 455.719 l 2,4,5
 163.205 440.183 163.205 440.183 192 404.193 c 128,-1,6
 220.793 368.205 220.793 368.205 235.918 353.375 c 1,7,-1
 322.637 452.25 l 1,8,-1
 324.137 453.969 l 2,9,10
 342.355 474.845 342.355 474.845 376.23 474.844 c 0,11,12
 407.279 474.844 407.279 474.844 429.254 452.868 c 128,-1,13
 451.23 430.893 451.23 430.893 451.23 399.844 c 0,14,15
 451.23 359.24 451.23 359.24 417.105 337 c 1,16,-1
 333.574 241.344 l 1,17,-1
 443.512 115.219 l 1,18,-1
 444.105 114.562 l 1,19,-1
 444.043 114.5 l 1,20,21
 457.23 95.3223 457.23 95.3223 457.23 72.0625 c 0,22,23
 457.199 41.0107 457.199 41.0107 435.238 19.0361 c 128,-1,24
 413.275 -2.9375 413.275 -2.9375 382.23 -2.9375 c 0,25,26
 340.152 -2.9375 340.152 -2.9375 318.168 33.0625 c 1,27,-1
 234.949 128.438 l 1,28,-1
 155.98 38 l 1,29,30
 146.654 19.0645 146.654 19.0645 128.566 7.56348 c 128,-1,31
 110.479 -3.9375 110.479 -3.9375 88.668 -3.9375 c 0,32,33
 57.6172 -3.9375 57.6172 -3.9375 35.6426 18.0371 c 128,-1,34
 13.668 40.0117 13.668 40.0117 13.668 71.0625 c 0,35,36
 13.668 98.9619 13.668 98.9619 31.918 120.062 c 1,37,-1
 31.543 120.406 l 1,38,-1
 137.043 240.688 l 1,39,-1
 47.6992 343.094 l 2,40,41
 21.668 372.931 21.668 372.931 21.668 399.844 c 0,42,43
 21.668 430.895 21.668 430.895 43.6426 452.869 c 128,-1,44
 65.6172 474.844 65.6172 474.844 96.668 474.844 c 0,0,1
EndSplineSet
KernsSLIFO: 75 -44 0 0 15 -80 0 0 14 -88 0 0 13 -384 0 0
EndChar
StartChar: y
Encoding: 121 121 90
Width: 507
GlyphClass: 2
Flags: W
HStem: -185.844 150.459<201.605 308.409> -177.738 153.052<91.8718 246.626>
VStem: 48.4688 151.531<171.571 434.095> 324.469 151.531<-24.7875 4.21875 147.548 443.253>
Fore
324.469 403.75 m 2,0,1
 324.469 434.832 324.469 434.832 345.783 455.338 c 128,-1,2
 367.098 475.844 367.098 475.844 396.531 475.844 c 0,3,4
 432.115 475.844 432.115 475.844 454.059 454.99 c 128,-1,5
 476 434.137 476 434.137 476 403.75 c 2,6,-1
 476 29.75 l 2,7,8
 476 -60.7334 476 -60.7334 414.73 -123.288 c 128,-1,9
 353.461 -185.844 353.461 -185.844 254.893 -185.844 c 0,10,11
 195.074 -185.844 195.074 -185.844 150.588 -177.738 c 128,-1,12
 106.102 -169.633 106.102 -169.633 76.957 -149.038 c 128,-1,13
 47.8125 -128.443 47.8125 -128.443 47.8125 -96.625 c 0,14,15
 47.8125 -65.5742 47.8125 -65.5742 69.7871 -43.5996 c 128,-1,16
 91.7617 -21.625 91.7617 -21.625 122.812 -21.625 c 0,17,18
 149.324 -21.625 149.324 -21.625 187.893 -28.5049 c 128,-1,19
 226.461 -35.3848 226.461 -35.3848 248.754 -35.3848 c 0,20,21
 294.643 -35.3848 294.643 -35.3848 309.43 -26.7393 c 128,-1,22
 324.219 -18.0938 324.219 -18.0938 324.219 4.21875 c 1,23,24
 305.684 0.208008 305.684 0.208008 263.656 1.40625 c 0,25,26
 169.146 4.10059 169.146 4.10059 110.107 65.2881 c 0,27,28
 48.4688 129.171 48.4688 129.171 48.4688 237.75 c 2,29,-1
 48.4688 403.75 l 2,30,31
 48.4688 434.095 48.4688 434.095 70.0762 454.75 c 128,-1,32
 91.6836 475.406 91.6836 475.406 123.25 475.406 c 0,33,34
 154.576 475.406 154.576 475.406 177.289 455.363 c 128,-1,35
 200 435.321 200 435.321 200 403.75 c 2,36,-1
 200 213.75 l 2,37,38
 200 181.305 200 181.305 217.246 164.426 c 128,-1,39
 234.494 147.548 234.494 147.548 264.871 147.548 c 0,40,41
 324.469 147.548 324.469 147.548 324.469 210.178 c 2,42,-1
 324.469 403.75 l 2,0,1
EndSplineSet
KernsSLIFO: 75 64 0 0 15 -92 0 0 13 -396 0 0
EndChar
StartChar: z
Encoding: 122 122 91
Width: 477
GlyphClass: 2
Flags: W
HStem: 0 150.531<266.656 388.562> 316.594 150.375<97.7798 216.717>
Fore
99.8418 466.969 m 2,0,-1
 387.5 466.969 l 2,1,2
 416.348 466.969 416.348 466.969 438.865 443.755 c 0,3,4
 460 421.968 460 421.968 460 391.594 c 0,5,6
 460 352.278 460 352.278 427.623 329.875 c 1,7,-1
 266.656 150.531 l 1,8,-1
 384.281 150.531 l 2,9,10
 386.102 150.594 386.102 150.594 386.842 150.594 c 0,11,12
 417.893 150.594 417.893 150.594 439.867 128.619 c 128,-1,13
 461.842 106.645 461.842 106.645 461.842 75.5938 c 0,14,15
 461.873 45.0117 461.873 45.0117 440.463 23.1611 c 128,-1,16
 419.055 1.31055 419.055 1.31055 388.562 0.625 c 1,17,-1
 388.562 0 l 1,18,-1
 97.6875 0 l 1,19,-1
 97.873 0.65625 l 1,20,21
 67.5488 1.54492 67.5488 1.54492 46.3203 23.3477 c 128,-1,22
 25.0918 45.1504 25.0918 45.1504 25.0918 75.5938 c 0,23,24
 25.0918 102.667 25.0918 102.667 42.4668 123.531 c 1,25,-1
 42.3125 123.906 l 1,26,-1
 216.717 317.188 l 1,27,-1
 102.967 316.781 l 2,28,29
 99.9629 316.594 99.9629 316.594 98.25 316.594 c 0,30,31
 96.7402 316.594 96.7402 316.594 93.9668 316.75 c 0,32,-1
 93.4375 316.781 l 2,33,34
 64.1152 318.513 64.1152 318.513 43.6152 340.256 c 128,-1,35
 23.25 361.854 23.25 361.854 23.25 391.594 c 0,36,37
 23.25 422.644 23.25 422.644 45.2246 444.619 c 128,-1,38
 67.1992 466.594 67.1992 466.594 98.25 466.594 c 0,39,40
 98.4199 466.594 98.4199 466.594 99.8418 466.969 c 2,0,-1
EndSplineSet
KernsSLIFO: 75 -42 0 0 15 -98 0 0 14 -76 0 0 13 -400 0 0
EndChar
StartChar: braceleft
Encoding: 123 123 92
Width: 505
GlyphClass: 2
Flags: W
HStem: 1.75 150<276.178 380.643> 549.562 150.188<276.548 387.477>
VStem: 133.424 152<151.75 263.15 446.092 548.632>
Fore
227.424 699.75 m 6,0,-1
 347.707 699.75 l 6,1,2
 378.969 699.75 378.969 699.75 400.541 678.318 c 132,-1,3
 422.111 656.886 422.111 656.886 422.111 624.562 c 4,4,5
 422.111 593.512 422.111 593.512 400.137 571.537 c 132,-1,6
 378.162 549.562 378.162 549.562 347.111 549.562 c 4,7,8
 334.531 549.562 334.531 549.562 316.885 549.098 c 132,-1,9
 299.238 548.632 299.238 548.632 285.424 548.632 c 5,10,-1
 285.424 495.75 l 6,11,12
 285.424 428.696 285.424 428.696 278.541 396.797 c 132,-1,13
 271.66 364.898 271.66 364.898 245.424 349.75 c 5,14,15
 271.686 334.587 271.686 334.587 278.555 300.371 c 132,-1,16
 285.424 266.155 285.424 266.155 285.424 203.75 c 6,17,-1
 285.424 151.75 l 5,18,19
 301.881 151.75 301.881 151.75 318.471 151.938 c 132,-1,20
 335.061 152.125 335.061 152.125 347.111 152.125 c 4,21,22
 378.162 152.125 378.162 152.125 400.137 130.15 c 132,-1,23
 422.111 108.176 422.111 108.176 422.111 77.125 c 4,24,25
 422.111 40.7139 422.111 40.7139 401.377 21.2324 c 132,-1,26
 380.643 1.75 380.643 1.75 347.424 1.75 c 6,27,-1
 227.424 1.75 l 6,28,29
 186.939 1.75 186.939 1.75 161.182 28.708 c 132,-1,30
 135.424 55.667 135.424 55.667 135.424 97.75 c 6,31,-1
 135.424 203.75 l 6,32,33
 135.424 243.861 135.424 243.861 129.764 260.806 c 132,-1,34
 124.105 277.75 124.105 277.75 109.236 277.75 c 4,35,36
 78.1641 277.75 78.1641 277.75 56.582 300.149 c 132,-1,37
 35 322.548 35 322.548 35 353.139 c 4,38,39
 35 384.466 35 384.466 56.8516 406.107 c 132,-1,40
 78.7031 427.75 78.7031 427.75 109.236 427.75 c 4,41,42
 127.367 427.75 127.367 427.75 131.396 441.648 c 4,43,44
 136.162 458.098 136.162 458.098 135.424 495.75 c 6,45,-1
 133.424 597.75 l 6,46,47
 132.566 641.479 132.566 641.479 160.104 671.083 c 4,48,49
 186.785 699.75 186.785 699.75 227.424 699.75 c 6,0,-1
EndSplineSet
EndChar
StartChar: bar
Encoding: 124 124 93
Width: 421
GlyphClass: 2
Flags: W
VStem: 138.469 149.031<-117.413 729.684>
Fore
138.469 687.579 m 2,0,1
 138.469 719.968 138.469 719.968 158.844 742.946 c 128,-1,2
 179.219 765.924 179.219 765.924 211.156 765.924 c 0,3,4
 245.383 765.924 245.383 765.924 266.441 745.672 c 128,-1,5
 287.5 725.42 287.5 725.42 287.5 690.443 c 2,6,-1
 287.5 -86.5811 l 2,7,8
 287.5 -117.413 287.5 -117.413 266.975 -138.547 c 128,-1,9
 246.449 -159.681 246.449 -159.681 212.266 -159.681 c 0,10,11
 179.664 -159.681 179.664 -159.681 159.066 -139.46 c 128,-1,12
 138.469 -119.239 138.469 -119.239 138.469 -88.5352 c 2,13,-1
 138.469 687.579 l 2,0,1
EndSplineSet
EndChar
StartChar: braceright
Encoding: 125 125 94
Width: 537
GlyphClass: 2
Flags: W
HStem: 1.75 150<84.8574 189.322> 549.562 150.188<78.0227 188.952>
VStem: 180.076 152<151.75 263.15 446.092 548.632>
Fore
238.076 699.75 m 2,0,-1
 117.793 699.75 l 2,1,2
 86.5312 699.75 86.5312 699.75 64.959 678.318 c 128,-1,3
 43.3887 656.886 43.3887 656.886 43.3887 624.562 c 0,4,5
 43.3887 593.512 43.3887 593.512 65.3633 571.537 c 128,-1,6
 87.3379 549.562 87.3379 549.562 118.389 549.562 c 0,7,8
 130.969 549.562 130.969 549.562 148.615 549.098 c 128,-1,9
 166.262 548.632 166.262 548.632 180.076 548.632 c 1,10,-1
 180.076 495.75 l 2,11,12
 180.076 428.696 180.076 428.696 186.959 396.797 c 128,-1,13
 193.84 364.898 193.84 364.898 220.076 349.75 c 1,14,15
 193.814 334.587 193.814 334.587 186.945 300.371 c 128,-1,16
 180.076 266.155 180.076 266.155 180.076 203.75 c 2,17,-1
 180.076 151.75 l 1,18,19
 163.619 151.75 163.619 151.75 147.029 151.938 c 128,-1,20
 130.439 152.125 130.439 152.125 118.389 152.125 c 0,21,22
 87.3379 152.125 87.3379 152.125 65.3633 130.15 c 128,-1,23
 43.3887 108.176 43.3887 108.176 43.3887 77.125 c 0,24,25
 43.3887 40.7139 43.3887 40.7139 64.123 21.2324 c 128,-1,26
 84.8574 1.75 84.8574 1.75 118.076 1.75 c 2,27,-1
 238.076 1.75 l 2,28,29
 278.561 1.75 278.561 1.75 304.318 28.708 c 128,-1,30
 330.076 55.667 330.076 55.667 330.076 97.75 c 2,31,-1
 330.076 203.75 l 2,32,33
 330.076 243.861 330.076 243.861 335.736 260.806 c 128,-1,34
 341.395 277.75 341.395 277.75 356.264 277.75 c 0,35,36
 387.336 277.75 387.336 277.75 408.918 300.149 c 128,-1,37
 430.5 322.548 430.5 322.548 430.5 353.139 c 0,38,39
 430.5 384.466 430.5 384.466 408.648 406.107 c 128,-1,40
 386.797 427.75 386.797 427.75 356.264 427.75 c 0,41,42
 338.133 427.75 338.133 427.75 334.104 441.648 c 0,43,44
 329.338 458.098 329.338 458.098 330.076 495.75 c 2,45,-1
 332.076 597.75 l 2,46,47
 332.934 641.479 332.934 641.479 305.396 671.083 c 0,48,49
 278.715 699.75 278.715 699.75 238.076 699.75 c 2,0,-1
EndSplineSet
EndChar
StartChar: brokenbar
Encoding: 166 166 95
Width: 205
GlyphClass: 2
Flags: W
VStem: 30.9707 149.029<43.2246 246.421 413.753 616.949>
Fore
30.9707 574.841 m 2,0,1
 30.9707 607.231 30.9707 607.231 51.3438 630.209 c 128,-1,2
 71.7168 653.186 71.7168 653.186 103.656 653.186 c 0,3,4
 137.883 653.186 137.883 653.186 158.941 632.934 c 128,-1,5
 180 612.682 180 612.682 180 577.705 c 2,6,-1
 180 444.586 l 2,7,8
 180 413.753 180 413.753 159.477 392.619 c 128,-1,9
 138.951 371.486 138.951 371.486 104.768 371.486 c 0,10,11
 72.166 371.486 72.166 371.486 51.5684 391.707 c 128,-1,12
 30.9707 411.928 30.9707 411.928 30.9707 442.632 c 2,13,-1
 30.9707 574.841 l 2,0,1
30.9707 204.313 m 2,14,15
 30.9707 236.704 30.9707 236.704 51.3438 259.681 c 128,-1,16
 71.7168 282.657 71.7168 282.657 103.656 282.657 c 0,17,18
 137.883 282.657 137.883 282.657 158.941 262.405 c 128,-1,19
 180 242.154 180 242.154 180 207.177 c 2,20,-1
 180 74.0576 l 2,21,22
 180 43.2246 180 43.2246 159.477 22.0918 c 128,-1,23
 138.951 0.958984 138.951 0.958984 104.768 0.958984 c 0,24,25
 72.166 0.958984 72.166 0.958984 51.5684 21.1797 c 128,-1,26
 30.9707 41.4004 30.9707 41.4004 30.9707 72.1045 c 2,27,-1
 30.9707 204.313 l 2,14,15
EndSplineSet
EndChar
StartChar: questiondown
Encoding: 191 191 96
Width: 599
GlyphClass: 2
Flags: W
HStem: 4 147.742<221.965 333.901>
VStem: 280.094 149.595<363.568 471.708 597.233 678.153>
Fore
279.687 637.787 m 128,-1,1
 279.687 668.838 279.687 668.838 301.661 690.812 c 128,-1,2
 323.636 712.787 323.636 712.787 354.687 712.787 c 128,-1,3
 385.737 712.787 385.737 712.787 407.712 690.812 c 128,-1,4
 429.687 668.838 429.687 668.838 429.687 637.787 c 128,-1,5
 429.687 606.592 429.687 606.592 407.712 584.617 c 128,-1,6
 385.737 562.643 385.737 562.643 354.687 562.643 c 128,-1,7
 323.636 562.643 323.636 562.643 301.661 584.617 c 128,-1,0
 279.687 606.592 279.687 606.592 279.687 637.787 c 128,-1,1
284.791 4 m 0,8,9
 179.561 4 179.561 4 107.28 60.1211 c 128,-1,10
 35 116.243 35 116.243 35 180 c 0,11,12
 35 216.633 35 216.633 47.1582 251.079 c 128,-1,13
 59.3154 285.525 59.3154 285.525 83.4258 315.276 c 128,-1,14
 107.537 345.026 107.537 345.026 149.367 363.041 c 128,-1,15
 191.196 381.055 191.196 381.055 244.873 381.055 c 0,16,17
 280.094 381.055 280.094 381.055 280.094 439.344 c 0,18,19
 280.094 469.406 280.094 469.406 302.187 487.875 c 128,-1,20
 324.279 506.344 324.279 506.344 354.688 506.344 c 0,21,22
 385.738 506.344 385.738 506.344 407.713 484.368 c 128,-1,23
 429.688 462.394 429.688 462.394 429.688 431.344 c 0,24,25
 429.688 342.743 429.688 342.743 377.636 286.113 c 128,-1,26
 325.583 229.483 325.583 229.483 248.609 229.483 c 0,27,28
 220.871 232.306 220.871 232.306 203.045 223.34 c 128,-1,29
 185.219 214.375 185.219 214.375 185.219 194 c 0,30,31
 185.219 183.168 185.219 183.168 187.062 175.755 c 128,-1,32
 188.905 168.341 188.905 168.341 196.254 163.69 c 128,-1,33
 203.602 159.04 203.602 159.04 208.053 156.564 c 128,-1,34
 212.504 154.088 212.504 154.088 228.303 153.045 c 128,-1,35
 244.103 152.001 244.103 152.001 251.559 151.893 c 128,-1,36
 259.014 151.785 259.014 151.785 282.956 151.785 c 0,37,38
 322.145 150.74 322.145 150.74 368.104 175.011 c 128,-1,39
 414.062 199.281 414.062 199.281 442.782 199.281 c 0,40,41
 473.833 199.281 473.833 199.281 495.808 177.307 c 128,-1,42
 517.782 155.332 517.782 155.332 517.782 124.281 c 0,43,44
 517.782 85.2646 517.782 85.2646 481.879 57.0459 c 128,-1,45
 445.977 28.8271 445.977 28.8271 394.539 16.4141 c 128,-1,46
 343.102 4 343.102 4 284.791 4 c 0,8,9
EndSplineSet
EndChar
StartChar: dieresis
Encoding: 168 168 97
Width: 474
Flags: W
TeX: 0 0 0 0
Fore
376.389 589.716 m 128,-1,1
 376.389 558.665 376.389 558.665 354.414 536.69 c 128,-1,2
 332.439 514.716 332.439 514.716 301.389 514.716 c 128,-1,3
 270.338 514.716 270.338 514.716 248.363 536.69 c 128,-1,4
 226.389 558.665 226.389 558.665 226.389 589.716 c 128,-1,5
 226.389 620.911 226.389 620.911 248.363 642.887 c 128,-1,6
 270.338 664.861 270.338 664.861 301.389 664.861 c 128,-1,7
 332.439 664.861 332.439 664.861 354.414 642.887 c 128,-1,0
 376.389 620.911 376.389 620.911 376.389 589.716 c 128,-1,1
199 594.096 m 128,-1,9
 199 563.045 199 563.045 177.025 541.07 c 128,-1,10
 155.051 519.096 155.051 519.096 124 519.096 c 128,-1,11
 92.9492 519.096 92.9492 519.096 70.9746 541.07 c 128,-1,12
 49 563.045 49 563.045 49 594.096 c 128,-1,13
 49 625.291 49 625.291 70.9746 647.266 c 128,-1,14
 92.9492 669.24 92.9492 669.24 124 669.24 c 128,-1,15
 155.051 669.24 155.051 669.24 177.025 647.266 c 128,-1,8
 199 625.291 199 625.291 199 594.096 c 128,-1,9
EndSplineSet
EndChar
StartChar: cedilla
Encoding: 184 184 98
Width: 459
Flags: W
TeX: 0 0 0 0
Fore
90 -80.9072 m 4,0,1
 90 -47.9756 90 -47.9756 108.936 -27.3477 c 132,-1,2
 127.87 -6.71875 127.87 -6.71875 164 -6.71875 c 4,3,4
 172.055 -6.71875 172.055 -6.71875 172.563 -1.0957 c 4,5,6
 172.563 3.7168 172.563 3.7168 171.546 4.21777 c 132,-1,7
 170.528 4.71777 170.528 4.71777 164 4.71777 c 4,8,9
 127.933 4.71777 127.933 4.71777 108.967 24.2275 c 132,-1,10
 90 43.7363 90 43.7363 90 74.7178 c 4,11,12
 90 106.609 90 106.609 112.959 128.773 c 132,-1,13
 135.917 150.937 135.917 150.937 170 150.937 c 4,14,15
 230.772 150.937 230.772 150.937 269.334 107.51 c 132,-1,16
 307.895 64.083 307.895 64.083 307.375 -1.21875 c 4,17,18
 307.375 -64.4863 307.375 -64.4863 270.733 -107.378 c 132,-1,19
 234.092 -150.27 234.092 -150.27 170 -150.907 c 4,20,21
 136.172 -150.907 136.172 -150.907 113.086 -129.982 c 132,-1,22
 90 -109.058 90 -109.058 90 -80.9072 c 4,0,1
EndSplineSet
EndChar
StartChar: acute
Encoding: 180 180 99
Width: 494
Flags: W
TeX: 0 0 0 0
Fore
300.906 719.221 m 0,0,1
 331.957 719.221 331.957 719.221 353.932 697.246 c 128,-1,2
 375.906 675.271 375.906 675.271 375.906 644.221 c 1,3,4
 370.996 610.622 370.996 610.622 357.809 594.797 c 0,5,6
 350.396 585.9 350.396 585.9 312.281 570.064 c 2,7,-1
 155.312 504.846 l 1,8,9
 137.594 494.283 137.594 494.283 117 494.283 c 0,10,11
 85.9512 494.283 85.9512 494.283 63.9766 516.259 c 0,12,13
 39.9131 540.32 39.9131 540.32 42 569.283 c 0,14,15
 45.8389 622.557 45.8389 622.557 82.7812 637.439 c 2,16,-1
 272.125 713.721 l 2,17,18
 285.777 719.221 285.777 719.221 300.906 719.221 c 0,0,1
EndSplineSet
EndChar
StartChar: ring
Encoding: 730 730 100
Width: 522
Flags: W
TeX: 0 0 0 0
Fore
204.377 778.127 m 0,0,1
 268.567 778.127 268.567 778.127 312.394 739.807 c 128,-1,2
 356.22 701.486 356.22 701.486 356.22 633.408 c 0,3,4
 356.22 566.793 356.22 566.793 312.938 527.741 c 128,-1,5
 269.656 488.689 269.656 488.689 204.377 488.689 c 0,6,7
 140.028 488.689 140.028 488.689 97.5146 526.933 c 128,-1,8
 55 565.176 55 565.176 55 633.408 c 0,9,10
 55 702.99 55 702.99 96.5781 740.559 c 128,-1,11
 138.156 778.127 138.156 778.127 204.377 778.127 c 0,0,1
204.5 649.314 m 0,12,13
 198.278 649.314 198.278 649.314 192.577 644.655 c 128,-1,14
 186.877 639.995 186.877 639.995 186.877 632.064 c 0,15,16
 186.877 615.502 186.877 615.502 204.5 615.502 c 0,17,18
 212.202 615.502 212.202 615.502 217.258 620.195 c 128,-1,19
 222.313 624.888 222.313 624.888 222.313 632.752 c 0,20,21
 222.313 649.314 222.313 649.314 204.5 649.314 c 0,12,13
EndSplineSet
EndChar
StartChar: tilde
Encoding: 732 732 101
Width: 537
Flags: W
TeX: 0 0 0 0
Fore
193.125 712.984 m 0,0,1
 212.41 713.109 212.41 713.109 226.568 708.854 c 128,-1,2
 240.728 704.601 240.728 704.601 249.178 699.595 c 128,-1,3
 257.629 694.589 257.629 694.589 265.771 680.794 c 128,-1,4
 273.913 666.998 273.913 666.998 277.555 658.248 c 128,-1,5
 281.195 649.498 281.195 649.498 289.345 627.547 c 1,6,7
 297.734 628.815 297.734 628.815 298.398 632.19 c 0,8,9
 298.728 633.861 298.728 633.861 298.313 636.484 c 0,10,11
 298.312 706.466 298.312 706.466 364.5 706.484 c 0,12,13
 392.417 706.47 392.417 706.47 410.475 685.516 c 128,-1,14
 428.531 664.562 428.531 664.562 428.531 630.484 c 0,15,16
 427.345 511.109 427.345 511.109 292.813 511.109 c 0,17,18
 255.009 515.226 255.009 515.226 227.627 537.319 c 128,-1,19
 200.244 559.413 200.244 559.413 197.031 596.172 c 1,20,21
 192.219 596.172 192.219 596.172 191.719 595.155 c 128,-1,22
 191.22 594.14 191.22 594.14 191.22 587.609 c 0,23,24
 191.22 517.609 191.22 517.609 129.22 517.609 c 0,25,26
 97.9893 517.609 97.9893 517.609 80.4941 538.196 c 128,-1,27
 63 558.783 63 558.783 63 593.609 c 0,28,29
 63 711.333 63 711.333 193.125 712.984 c 0,0,1
EndSplineSet
EndChar
StartChar: breve
Encoding: 728 728 102
Width: 458
Flags: W
TeX: 0 0 0 0
Fore
116.584 723.673 m 0,0,1
 149.516 723.673 149.516 723.673 170.143 704.738 c 128,-1,2
 190.771 685.804 190.771 685.804 190.771 649.673 c 0,3,4
 190.771 641.62 190.771 641.62 196.396 641.11 c 0,5,6
 201.209 641.11 201.209 641.11 201.709 642.127 c 128,-1,7
 202.209 643.143 202.209 643.143 202.209 649.673 c 0,8,9
 202.209 685.74 202.209 685.74 221.717 704.707 c 128,-1,10
 241.227 723.673 241.227 723.673 272.209 723.673 c 0,11,12
 304.102 723.673 304.102 723.673 326.264 700.715 c 128,-1,13
 348.428 677.757 348.428 677.757 348.428 643.673 c 0,14,15
 348.428 582.9 348.428 582.9 305 544.34 c 128,-1,16
 261.572 505.778 261.572 505.778 196.271 506.298 c 0,17,18
 133.004 506.298 133.004 506.298 90.1113 542.939 c 128,-1,19
 47.2207 579.582 47.2207 579.582 46.584 643.673 c 0,20,21
 46.584 677.502 46.584 677.502 67.5098 700.588 c 128,-1,22
 88.4336 723.673 88.4336 723.673 116.584 723.673 c 0,0,1
EndSplineSet
EndChar
StartChar: circumflex
Encoding: 710 710 103
Width: 550
Flags: W
TeX: 0 0 0 0
Fore
257 719.377 m 5,0,-1
 391.903 633.387 l 6,1,2
 401.87 625.123 401.87 625.123 408.112 619.708 c 132,-1,3
 414.354 614.292 414.354 614.292 417.177 604.286 c 132,-1,4
 419.999 594.279 419.999 594.279 419.999 574.377 c 4,5,6
 419.999 543.326 419.999 543.326 398.024 521.352 c 132,-1,7
 376.05 499.377 376.05 499.377 345 499.377 c 4,8,9
 328.035 501.344 328.035 501.344 313.083 508.224 c 132,-1,10
 298.132 515.104 298.132 515.104 291.494 519.889 c 132,-1,11
 284.856 524.673 284.856 524.673 266.948 541.378 c 132,-1,12
 249.041 558.082 249.041 558.082 243 563.377 c 5,13,14
 235.689 557.007 235.689 557.007 219.204 541.652 c 132,-1,15
 202.719 526.299 202.719 526.299 196.224 521.426 c 132,-1,16
 189.728 516.553 189.728 516.553 175.732 509.637 c 132,-1,17
 161.737 502.721 161.737 502.721 145 499.377 c 5,18,19
 113.949 499.377 113.949 499.377 91.9746 521.352 c 132,-1,20
 70 543.326 70 543.326 70 574.377 c 4,21,22
 69.999 621.71 69.999 621.71 95.9648 634.453 c 6,23,-1
 223.296 717.975 l 5,24,25
 234.766 723.244 234.766 723.244 239.096 723.367 c 132,-1,26
 243.426 723.491 243.426 723.491 257 719.377 c 5,0,-1
EndSplineSet
EndChar
StartChar: caron
Encoding: 711 711 104
Width: 550
Flags: W
TeX: 0 0 0 0
Fore
233 489.623 m 5,0,-1
 98.0967 575.613 l 6,1,2
 88.1299 583.877 88.1299 583.877 81.8877 589.292 c 132,-1,3
 75.6455 594.708 75.6455 594.708 72.8232 604.714 c 132,-1,4
 70.001 614.721 70.001 614.721 70.001 634.623 c 4,5,6
 70.001 665.674 70.001 665.674 91.9756 687.648 c 132,-1,7
 113.95 709.623 113.95 709.623 145 709.623 c 4,8,9
 161.965 707.656 161.965 707.656 176.917 700.776 c 132,-1,10
 191.868 693.896 191.868 693.896 198.506 689.111 c 132,-1,11
 205.144 684.327 205.144 684.327 223.052 667.622 c 132,-1,12
 240.959 650.918 240.959 650.918 247 645.623 c 5,13,14
 254.311 651.993 254.311 651.993 270.796 667.348 c 132,-1,15
 287.281 682.701 287.281 682.701 293.776 687.574 c 132,-1,16
 300.272 692.447 300.272 692.447 314.268 699.363 c 132,-1,17
 328.263 706.279 328.263 706.279 345 709.623 c 5,18,19
 376.051 709.623 376.051 709.623 398.025 687.648 c 132,-1,20
 420 665.674 420 665.674 420 634.623 c 4,21,22
 420.001 587.29 420.001 587.29 394.035 574.547 c 6,23,-1
 266.704 491.025 l 5,24,25
 255.234 485.756 255.234 485.756 250.904 485.633 c 132,-1,26
 246.574 485.509 246.574 485.509 233 489.623 c 5,0,-1
EndSplineSet
EndChar
StartChar: dotlessi
Encoding: 305 305 167
Width: 247
Flags: W
TeX: 0 0 0 0
VStem: 52 149.031<42.0176 439.512 552.759 633.679>
Fore
52 397.405 m 2,0,1
 52 429.795 52 429.795 72.375 452.772 c 128,-1,2
 92.75 475.75 92.75 475.75 124.688 475.75 c 0,3,4
 158.914 475.75 158.914 475.75 179.973 455.498 c 128,-1,5
 201.031 435.247 201.031 435.247 201.031 400.27 c 2,6,-1
 201.031 72.8496 l 2,7,8
 201.031 42.0176 201.031 42.0176 180.506 20.8838 c 128,-1,9
 159.98 -0.25 159.98 -0.25 125.799 -0.25 c 0,10,11
 93.1973 -0.25 93.1973 -0.25 72.5996 19.9717 c 128,-1,12
 52 40.1934 52 40.1934 52 70.8955 c 2,13,-1
 52 397.405 l 2,0,1
EndSplineSet
EndChar
